<svg xmlns="http://www.w3.org/2000/svg" version="1.1" xmlns:xlink="http://www.w3.org/1999/xlink" width="480" height="582.43"><svg xmlns="http://www.w3.org/2000/svg" viewBox="0 0 480 582.43">
    <defs>
        <style>
            .cls-1{fill:#333}.cls-3{fill:#fff}.cls-4{fill:#ccc}.cls-5{fill:#c39}.cls-6{fill:#f33}.cls-7{fill:#699}.cls-8{fill:none;stroke:#000;stroke-linecap:round;stroke-linejoin:round;stroke-width:2px}.cls-9{fill:#636}.cls-13{fill:#9cc}
        </style>
    </defs>
    <g id="SvgjsG1059" data-name="Body Connector Image">
        <path d="M268.64 296.95h-46.56c-2.02-2.07-4.04-4.14-6.24-6.4 1.37-1.24 2.66-2.41 4.09-3.7l-4.09-4.06c1.39-1.2 2.77-2.38 3.9-3.36-2-2.16-3.79-4.08-5.58-6.01v-.48c1.74-1.86 3.49-3.72 5.39-5.75-1.58-1.55-3.37-3.29-5.47-5.33 3.33-2.05 6.13-5.42 8.96-8.12h4.32c8.84 1.3 18.36.64 27.29.89l7.31.21c1.95.06 4.51-.3 6.37.27 1.86.57 3.41 2.68 4.79 4.02 1.07 1.03 2.41 2 3.1 3.32-1.61 1.52-3.25 3.07-4.65 4.39 1.94 2.08 3.82 4.09 5.7 6.1v.48c-1.83 1.94-3.66 3.89-5.62 5.98.87.82 1.94 1.82 3.34 3.14-1.55 1.29-3.05 2.53-4.78 3.97 1.69 1.6 3.07 2.91 4.77 4.52-2.16 2.02-4.26 3.97-6.35 5.92Z"></path>
        <path class="cls-3" d="m229.76 293.59-.96.96s34.85 1.56 36.24 1.2c1.39-.36-37.56-.36-35.28-2.16Z" id="SvgjsPath1058" data-name="Shape 8"></path>
        <path class="cls-3" d="M230 292.19s31.49.6 32.64.48l-32.64-.48Z" id="SvgjsPath1057" data-name="Shape 7"></path>
        <path class="cls-3" d="m220.12 279.95-2.64 3.36s31.37 1.56 40.8.24c9.43-1.32-42.36 2.4-38.16-3.6Z" id="SvgjsPath1056" data-name="Shape 6"></path>
        <path class="cls-3" d="M222.77 279.17s38.66.84 42.47.56l-42.47-.56Z" id="SvgjsPath1055" data-name="Shape 5"></path>
        <path class="cls-3" d="m219.55 270.27-3.95 3.36s51.83-.32 56.13.36c-4.72-1.41-58.48 1.31-52.18-3.72Zm52.18 3.72c.12.04.22.08.28.12.05-.04-.05-.08-.28-.12Z" id="SvgjsPath1054" data-name="Shape 4"></path>
        <path class="cls-3" d="m219.48 259.03-2.4 2.4s31.61 1.2 36 .48c4.39-.72-37.68.84-33.6-2.88Z" id="SvgjsPath1053" data-name="Shape 3"></path>
        <path class="cls-3" d="m253.12 266.71-16.81.24s-16.81.6-13.04-3.12l-2.74 2.88 4.8.72c2.4-.12 8.48.48 11.32.48s25.73-.24 25.73-.24l6.86-.48-16.13-.48Z" id="SvgjsPath1052" data-name="Shape 2"></path>
    </g>
    <g id="SvgjsG1051" data-name="Left Leg Image">
        <path d="M219.89 356.84c1.96 2.32 3.9 5.53 2.27 8.42-1.74 3.08-4.48 5.89-6.63 8.69-2.39 3.11-4.77 6.21-7.16 9.31l-6.36 8.28c-1.98 2.58-3.47 4.7-6.97 4.48-3.84-.24-7.69-1.31-11.5-1.83-1.5-.2-2.04-.52-2.91.69-.54.75-1.15 3.67-.38 4.42 1.58 1.52 5.26-.26 7.27.73 1.3.64 1.64 1.92 2.59 2.91.96 1 2.08 1.51 3.33 2.05 2.48 1.08 3.77 2.05 3.85 4.9.09 3.4-.67 6.98-1.1 10.34-.4 3.18-1.27 6.56-1.31 9.76s3.47 4.28 5.8 5.86c2.15 1.47 5.54 3.03 5.53 6.01-.01 3.33-1.67 7.17-2.31 10.46-1.35 6.88-2.56 13.79-3.87 20.67-.66 3.46-.76 7.77-2.02 11.05-1.07 2.82-3.54 3.02-6.14 3.67-1.8.46-4.78 2.73-2.23 4.56 2.13 1.53 5.08-.65 6.03 2.82.85 3.15.16 7.42.19 10.69.04 3.93 0 7.87.13 11.79.07 2.44.45 4.8-1.37 6.73-2.14 2.27-6.04 3.39-8.78 4.77-3.2 1.61-6.39 3.23-9.56 4.9-3.18 1.66-5.39 3.94-8.08 6.24-4.86 4.16-11.98 1.01-17.64 2.74h-42.24c-.39-1.01-2.03-1.9-2.76-2.74-.89-1.01-1.64-2.13-2.37-3.26-1.86-2.87-3.73-5.74-5.57-8.63-1.22-1.93-3.88-4.88-3.99-7.26-.13-2.87 3.5-6.21 5.06-8.36 2.14-2.93 4.3-5.84 6.43-8.78.93-1.27 2.01-2.37 2.29-3.94.31-1.7-.3-3.51-.15-5.22.27-3.22 1.82-6.5 2.87-9.52.68-1.93 3.54-6.79 1.71-8.24-.88-.7-2.99-.7-4.08-.93-1.77-.36-3.54-.72-5.31-1.09-1.63-.35-3.24-.57-4.67-1.47-1.33-.84-2.47-2-3.83-2.84-2.1-1.3-5.77-2.07-6.26-4.87-.55-3.15 1.6-7.82 2.33-10.86 3.4-14.23 6.95-28.42 10.41-42.63.68-2.8.78-6.13 2.63-8.47 1.82-2.3 4.91-3.65 7.6-4.63 3.28-1.2 6.11-.17 9.05 1.4 3.23 1.73 6.52 3.3 9.83 4.86.94.45 2.62 1.65 3.75 1.31 1.15-.35 2.09-2.57 2.69-3.48.87-1.31 2.43-2.94 2.95-4.41.57-1.57.32-1.56-1.23-2.34-3.19-1.6-6.64-2.8-9.91-4.23-2.3-1-6.35-1.79-6.49-4.73-.14-3.05 1.89-7.32 2.67-10.26.91-3.47 1.88-6.93 2.78-10.41 1.85-7.08 3.6-14.2 5.32-21.31 1.67-6.93 3.51-13.83 5.38-20.71.86-3.18 1.62-6.4 2.52-9.57.66-2.32 3.39-7.19 2.23-9.52-.57-1.15-1.75-1.49-2.07-2.93-.35-1.57.22-3.41.47-4.95.58-3.65.88-7.62 1.93-11.17.92-3.1 3.32-2.9 6.11-2.48 3.77.56 7.52 1.49 11.25 2.27 7.21 1.5 24 5.94 31.21 7.46 4.01.85 3.11 2.19 3.14 5.74.04 3.85-.35 9.46-.09 13.3.44 6.5-.19 9.76-.82 16.49-.39 4.15-7.64 1.25-9.1.03-2.28-1.91-7.24-2.15-10.09-2.85-3.13-.77-6.44-1.93-9.65-2.29-2.96-.33-2.93 2.84-3.79 5.26-.81 2.27-2.71 4.75-.2 6.07 3.18 1.68 7.34 2.37 10.77 3.48 6.97 2.27 14.03 4.42 20.88 7.02 6.79 2.57 13.38 6.05 20.46 7.82 2.62.66 5.42.54 7.28 2.76Zm-5.78 7.91c.25-1.48-2.16-4.42-3.19-5.59-3.17-3.6-9.25-4.19-13.59-5.6-10.95-3.55-21.88-7.23-32.89-10.59-2.32 1.02-3.45 3.81-4.58 5.98-1.53 2.94-3 5.91-4.49 8.87-1.17 2.34-3.98 6.02-4.2 8.58-.19 2.34 3.82 4.18 5.56 5.43 9.24 6.61 19.43 11.31 30.03 15.27 1.79.67 5.8 3.09 7.69 2.57 1.71-.47 3.45-3.88 4.45-5.15 3.55-4.54 7.11-9.07 10.65-13.61 1.26-1.62 4.21-4.12 4.56-6.16Zm-15.81 80.92c.02-2.62-.68-3.45-3.18-4.23-2.46-.78-4.87-1.73-7.27-2.69-1.32-.53-1.99-.25-2 1.12-.01 3.71 0 7.43.08 11.14.04 1.57.62 2.93 2.09 3.82 2.08 1.26 4.13 2.57 6.15 3.93 1.31.89 1.67.86 1.97-.73.77-4.11 1.44-8.24 2.16-12.36Zm-4.71 22.71c-.1-.01-.2-.03-.3-.04.39-3.17-2.14-4.58-4.53-5.96-2.72-1.57-4.85-2.86-7.95-1.63-3.01 1.2-6.25 2.71-9.05 4.33-3.15 1.83-.33 3.87 1.34 6.1 3.17 4.2 6.35 11.5 12.55 10.71 2.82-.36 4.94-.59 5.8-3.49.97-3.24 1.44-6.71 2.14-10.02Zm-3.51-55.11c.22-2.38-7.47-5.76-8.94-4-1.05 1.25-1.21 5.04-1.63 6.62-.48 1.86-1.87 4.69-1.09 6.59.7 1.71 8.29 8.43 9.64 7.13 1.1-1.06.91-6.56 1.08-7.96.33-2.79.67-5.58.94-8.38Zm-4.05 93.94c0-3.96 1.22-7.6-3.79-7.05-5.36.59-3.41 8.97-3.41 12.8h-.13c0 2.67-.88 7.06-.04 9.58.7 2.12 2.03 1.18 3.86.13 4.98-2.83 3.52-10.56 3.51-15.46Zm-17.24-12.12c2.63-.01 16.37 1.5 13.37-4.73-.91-1.88-3.55-2.68-5.11-3.99-2.04-1.72-3.76-3.93-5.5-5.94-1.95-2.24-3.79-4.79-5.95-6.84-1.88-1.78-4.55-2.23-6.97-2.96-2.86-.85-5.71-1.69-8.58-2.51-2.78-.8-5.99-2.2-8.86-2.53-4.12-.47-1.09 6.52-3.65 8.84-1.94 1.76-5.87 2.64-8.26 3.63-2.35.98-4.9 1.81-7.14 3.04-2.3 1.25-3.01 3.22-4.06 5.5-.58 1.28-3.51 5.65-3.2 6.98.52 2.19 12.08.96 14.51.96h18.05v.55c7.12 0 14.23.01 21.35 0Zm10.67-41.43c.76-2.39.1-6 .1-8.52s.77-6.68-.25-9.09c-.95-2.26-4.03-2.84-6.09-3.57-5.76-2.04-11.45-4.24-17.18-6.36-3.07-1.14-6.17-2.19-9.25-3.28-1.15-.41-4.51-2.29-5.74-1.52-1.56.97-2.03 5.76-2.54 7.34-.9 2.8-1.88 5.57-2.77 8.37-.78 2.43-3.02 6.47-2.83 9 .19 2.57 4.2 3.08 6.22 3.85 6.04 2.3 12.12 4.5 18.21 6.65 2.93 1.03 6.48 2.96 9.59 3.2 2.43.19 5.19-1.29 7.38-2.18 2.09-.84 4.41-1.55 5.15-3.89Zm-3.55 57.9c.02-1.89 1.91-13.44-3.44-10.6-1.56.83-1.01 2.81-1.01 4.44v8.95h.01c0 3.07.02 6.14 0 9.21-.01 2.15-.52 5.36 2.25 3.24 2.06-1.58 2.12-3.47 2.13-5.9.01-3.11.04-6.23.06-9.34Zm2.4-79.5c-.72-2.48-5.51-5.51-7.67-6.81-2.73-1.64-5.71-2.49-7.47-5.37-.84-1.37-1.23-2.87-1.39-4.46-.14-1.36.29-3.38-.54-4.58-1.53-2.21-7.39-1.23-9.74-1.27-.4 0-3.83-.25-2.73 1.13.67.85 3.91-.38 4.83-.54 1.62-.29 2.21-.61 2.63 1.05.37 1.42.3 4.09 0 5.51-.35 1.61-.93 1.65-2.5 1.05-1.1-.42-1.55-.57-2.81-.79-3.34-.58-6.78-2.19-9.69.37 2.41 2.12 5.98 2.78 8.96 3.92 3.17 1.2 6.29 2.54 9.45 3.76 3.2 1.25 6.4 2.47 9.58 3.74 2.94 1.17 5.96 2.83 9.09 3.29Zm-5.04-27.04c.31-1.72.66-2.48-.44-3.76-.49-.58-3.35-2.38-4.14-2.23-1.98.36-3.22 7-3.69 8.84.49 1.64.98 2.48 2.21 3.73.58.59 2.92 3.43 3.78 3.26 1.42-.29 2.02-8.46 2.28-9.84Zm-7.34-7.69c1.16-2.98 2.99-5.52-.77-6.95-3.2-1.21-6.74-2.02-10.03-2.96-6.26-1.77-8.07 7.74-9.89 12.07-.6 1.45-3.88 6.76-2.31 7.97.79.62 3.02.19 3.97.19 1.77.01 3.55 0 5.32 0 2.39 0 7.65 1.04 9.6-.53 1.03-.82 1.57-3.24 2.04-4.44.7-1.78 1.38-3.57 2.07-5.35Zm-2.52-80.43c1.74 0 2.89.41 2.69-1.41-.11-.98-1.74-4.27-2.8-4.09-.93.16-2.64 3.17-2.68 4.1-.08 1.78 1.14 1.37 2.79 1.37v.03Zm-.19 67.94c.08-.12.16-.24.24-.37-1.49-2.07-4.68-2.87-7.02-3.54-2.88-.81-6.87-1.93-9.82-1.08 1.56 1.73 5.08 1.93 7.3 2.56 3.08.88 6.14 1.9 9.3 2.43Zm-5.76-7.5c2.29-1.64-6.99-5.66-8.64-4.84-2.23 1.12-.82 2.32.38 2.89 2.35 1.09 5.75 1.34 8.26 1.95Zm-18.43 126.07c.36-.38.71-1.15.55-1.51-.17-.37-.96-.62-1.49-.63-3.55-.06-7.11-.03-10.67-.03s-7.04.06-10.56-.02c-1.55-.03-2.6.64-3.38 1.86-3.39 5.31-6.85 10.58-10.12 15.97-1.57 2.59-.51 4.43 2.13 5.25.45.13.95.13 1.43.15 8.1.41 16.21.81 24.31 1.23 1.75.09 2.02-.13 2.01-1.92 0-3.96 0-7.91-.03-11.87-.02-2.06.8-3.69 2.3-5.06 1.22-1.1 2.41-2.22 3.52-3.42Zm-18.99 32.72c3.54.04 11.02 2.01 9.68-3.78-.78-3.36-8.13-1.79-10.95-1.79v.05c-2.81 0-5.7-.16-8.51-.01-2.13.12-3.03.32-1.93 2.41 2.34 4.4 7.5 3.08 11.71 3.12Zm10.23-122.02c-2-1.9-4.67-2.67-7.2-3.69-1.59-.65-5.79-3.34-7.43-2.46-1.45.78-1.77 6.93-2.07 8.47-.66 3.34-1.28 6.69-1.92 10.03-1.25 6.47-2.71 12.89-4.03 19.35-1.35 6.56-3.2 13.26-4 19.91-.42 3.51 2.79 3.6 5.65 4.54 2.41.78 4.82 2.71 6.08-.26 1.17-2.76 1.59-6.32 2.4-9.24.93-3.3 1.74-6.63 2.61-9.94 3.23-12.25 6.92-24.4 9.91-36.71Zm-18.2-5.26c-.02-2.18-2.75-.72-3.58.11-1.61 1.63-1.73 4.35-2.21 6.45-1.24 5.51-2.64 10.97-3.95 16.46-1.31 5.48-2.59 10.96-3.89 16.44-.62 2.61-1.24 5.22-1.88 7.82-.42 1.75-2.18 5.46-1.64 7.25.47 1.54 3.93 2.45 5.06 1.31 1.17-1.16 1.16-4.93 1.49-6.54 1.15-5.55 2.3-11.11 3.47-16.65 2.29-10.89 4.98-21.74 7.13-32.65Z"></path>
        <path class="cls-4" d="M210.92 359.16c1.03 1.17 3.44 4.11 3.19 5.59-.35 2.04-3.3 4.54-4.56 6.16-3.54 4.54-7.1 9.07-10.65 13.61-1 1.27-2.74 4.68-4.45 5.15-1.89.52-5.9-1.9-7.69-2.57-10.6-3.96-20.79-8.66-30.03-15.27-1.74-1.25-5.75-3.09-5.56-5.43.22-2.56 3.03-6.24 4.2-8.58 1.49-2.96 2.96-5.93 4.49-8.87 1.13-2.17 2.26-4.96 4.58-5.98 11.01 3.36 21.94 7.04 32.89 10.59 4.34 1.41 10.42 2 13.59 5.6Z"></path>
        <path class="cls-13" d="M195.12 441.44c2.5.78 3.2 1.61 3.18 4.23-.72 4.12-1.39 8.25-2.16 12.36-.3 1.59-.66 1.62-1.97.73-2.02-1.36-4.07-2.67-6.15-3.93-1.47-.89-2.05-2.25-2.09-3.82-.08-3.71-.09-7.43-.08-11.14.01-1.37.68-1.65 2-1.12 2.4.96 4.81 1.91 7.27 2.69Z"></path>
        <path class="cls-7" d="M193.29 468.34c.1.01.2.03.3.04-.7 3.31-1.17 6.78-2.14 10.02-.86 2.9-2.98 3.13-5.8 3.49-6.2.79-9.38-6.51-12.55-10.71-1.67-2.23-4.49-4.27-1.34-6.1 2.8-1.62 6.04-3.13 9.05-4.33 3.1-1.23 5.23.06 7.95 1.63 2.39 1.38 4.92 2.79 4.53 5.96Z"></path>
        <path class="cls-13" d="M181.14 409.27c1.47-1.76 9.16 1.62 8.94 4-.27 2.8-.61 5.59-.94 8.38-.17 1.4.02 6.9-1.08 7.96-1.35 1.3-8.94-5.42-9.64-7.13-.78-1.9.61-4.73 1.09-6.59.42-1.58.58-5.37 1.63-6.62Z"></path>
        <path class="cls-1" d="M182.24 500.16c5.01-.55 3.79 3.09 3.79 7.05.01 4.9 1.47 12.63-3.51 15.46-1.83 1.05-3.16 1.99-3.86-.13-.84-2.52.04-6.91.04-9.58h.13c0-3.83-1.95-12.21 3.41-12.8Z"></path>
        <path class="cls-4" d="M182.16 490.36c3 6.23-10.74 4.72-13.37 4.73-7.12.01-14.23 0-21.35 0v-.55h-18.05c-2.43 0-13.99 1.23-14.51-.96-.31-1.33 2.62-5.7 3.2-6.98 1.05-2.28 1.76-4.25 4.06-5.5 2.24-1.23 4.79-2.06 7.14-3.04 2.39-.99 6.32-1.87 8.26-3.63 2.56-2.32-.47-9.31 3.65-8.84 2.87.33 6.08 1.73 8.86 2.53 2.87.82 5.72 1.66 8.58 2.51 2.42.73 5.09 1.18 6.97 2.96 2.16 2.05 4 4.6 5.95 6.84 1.74 2.01 3.46 4.22 5.5 5.94 1.56 1.31 4.2 2.11 5.11 3.99Z"></path>
        <path class="cls-13" d="M179.56 445.14c0 2.52.66 6.13-.1 8.52-.74 2.34-3.06 3.05-5.15 3.89-2.19.89-4.95 2.37-7.38 2.18-3.11-.24-6.66-2.17-9.59-3.2-6.09-2.15-12.17-4.35-18.21-6.65-2.02-.77-6.03-1.28-6.22-3.85-.19-2.53 2.05-6.57 2.83-9 .89-2.8 1.87-5.57 2.77-8.37.51-1.58.98-6.37 2.54-7.34 1.23-.77 4.59 1.11 5.74 1.52 3.08 1.09 6.18 2.14 9.25 3.28 5.73 2.12 11.42 4.32 17.18 6.36 2.06.73 5.14 1.31 6.09 3.57 1.02 2.41.25 6.49.25 9.09Z"></path>
        <path class="cls-1" d="M172.47 500.96c5.35-2.84 3.46 8.71 3.44 10.6-.02 3.11-.05 6.23-.06 9.34-.01 2.43-.07 4.32-2.13 5.9-2.77 2.12-2.26-1.09-2.25-3.24.02-3.07 0-6.14 0-9.21h-.01v-8.95c0-1.63-.55-3.61 1.01-4.44Z"></path>
        <path class="cls-13" d="M170.64 425.25c2.16 1.3 6.95 4.33 7.67 6.81-3.13-.46-6.15-2.12-9.09-3.29-3.18-1.27-6.38-2.49-9.58-3.74-3.16-1.22-6.28-2.56-9.45-3.76-2.98-1.14-6.55-1.8-8.96-3.92 2.91-2.56 6.35-.95 9.69-.37 1.26.22 1.71.37 2.81.79 1.57.6 2.15.56 2.5-1.05.3-1.42.37-4.09 0-5.51-.42-1.66-1.01-1.34-2.63-1.05-.92.16-4.16 1.39-4.83.54-1.1-1.38 2.33-1.14 2.73-1.13 2.35.04 8.21-.94 9.74 1.27.83 1.2.4 3.22.54 4.58.16 1.59.55 3.09 1.39 4.46 1.76 2.88 4.74 3.73 7.47 5.37Z"></path>
        <path class="cls-7" d="M172.83 401.26c1.1 1.28.75 2.04.44 3.76-.26 1.38-.86 9.55-2.28 9.84-.86.17-3.2-2.67-3.78-3.26-1.23-1.25-1.72-2.09-2.21-3.73.47-1.84 1.71-8.48 3.69-8.84.79-.15 3.65 1.65 4.14 2.23Z"></path>
        <path class="cls-4" d="M165.16 390.38c3.76 1.43 1.93 3.97.77 6.95-.69 1.78-1.37 3.57-2.07 5.35-.47 1.2-1.01 3.62-2.04 4.44-1.95 1.57-7.21.53-9.6.53-1.77 0-3.55.01-5.32 0-.95 0-3.18.43-3.97-.19-1.57-1.21 1.71-6.52 2.31-7.97 1.82-4.33 3.63-13.84 9.89-12.07 3.29.94 6.83 1.75 10.03 2.96Z"></path>
        <path class="cls-13" d="M166.1 315.49c.2 1.82-.95 1.41-2.69 1.41v-.03c-1.65 0-2.87.41-2.79-1.37.04-.93 1.75-3.94 2.68-4.1 1.06-.18 2.69 3.11 2.8 4.09Z"></path>
        <path class="cls-7" d="M163.46 384.47c-.08.13-.16.25-.24.37-3.16-.53-6.22-1.55-9.3-2.43-2.22-.63-5.74-.83-7.3-2.56 2.95-.85 6.94.27 9.82 1.08 2.34.67 5.53 1.47 7.02 3.54Z"></path>
        <path class="cls-13" d="M148.82 372.5c1.65-.82 10.93 3.2 8.64 4.84-2.51-.61-5.91-.86-8.26-1.95-1.2-.57-2.61-1.77-.38-2.89Z"></path>
        <path class="cls-7" d="M139.58 501.9c.16.36-.19 1.13-.55 1.51-1.11 1.2-2.3 2.32-3.52 3.42-1.5 1.37-2.32 3-2.3 5.06.03 3.96.03 7.91.03 11.87.01 1.79-.26 2.01-2.01 1.92-8.1-.42-16.21-.82-24.31-1.23-.48-.02-.98-.02-1.43-.15-2.64-.82-3.7-2.66-2.13-5.25 3.27-5.39 6.73-10.66 10.12-15.97.78-1.22 1.83-1.89 3.38-1.86 3.52.08 7.04.02 10.56.02s7.12-.03 10.67.03c.53.01 1.32.26 1.49.63ZM129.72 532.35c1.34 5.79-6.14 3.82-9.68 3.78-4.21-.04-9.37 1.28-11.71-3.12-1.1-2.09-.2-2.29 1.93-2.41 2.81-.15 5.7.01 8.51.01v-.05c2.82 0 10.17-1.57 10.95 1.79Z"></path>
        <path class="cls-13" d="M123.07 410.42c2.53 1.02 5.2 1.79 7.2 3.69-2.99 12.31-6.68 24.46-9.91 36.71-.87 3.31-1.68 6.64-2.61 9.94-.81 2.92-1.23 6.48-2.4 9.24-1.26 2.97-3.67 1.04-6.08.26-2.86-.94-6.07-1.03-5.65-4.54.8-6.65 2.65-13.35 4-19.91 1.32-6.46 2.78-12.88 4.03-19.35.64-3.34 1.26-6.69 1.92-10.03.3-1.54.62-7.69 2.07-8.47 1.64-.88 5.84 1.81 7.43 2.46Z"></path>
        <path class="cls-3" d="M108.49 408.96c.83-.83 3.56-2.29 3.58-.11-2.15 10.91-4.84 21.76-7.13 32.65-1.17 5.54-2.32 11.1-3.47 16.65-.33 1.61-.32 5.38-1.49 6.54-1.13 1.14-4.59.23-5.06-1.31-.54-1.79 1.22-5.5 1.64-7.25.64-2.6 1.26-5.21 1.88-7.82 1.3-5.48 2.58-10.96 3.89-16.44 1.31-5.49 2.71-10.95 3.95-16.46.48-2.1.6-4.82 2.21-6.45Z"></path>
    </g>
    <g id="SvgjsG1050" data-name="Left Leg Connector Image">
        <path d="M194.24 301.27v46.8c-4.12-.54-8.39.35-12.55-.03-2.04-.18-7.73-.16-8.98-1.8-.64-.83-.07-3.49-.07-4.54v-6.64c-.01-4.2-.01-8.41-.01-12.61 0-4.43-.01-8.85 0-13.28 0-2.24-1.11-8.18 1.04-9.08 2.81-1.18 5.94 1.5 8.62 1.57 3.87.11 8.18.48 11.95-.39Zm-.93 23.28c0-5.64-.03-11.27.02-16.91 0-1.16-.41-1.56-1.54-1.54-2.92.05-5.84.01-8.76.02-1.71.01-2.27.51-2.26 2.2.08 11.08.19 22.15.26 33.23.01 1.02.4 1.4 1.44 1.38 3.08-.05 6.16-.02 9.24-.01 1.4.01 1.6-.17 1.6-1.57v-16.8Zm-15.85 15.05-.48-.15c-.52.7-1.92 1.9-1.21 2.74 1.42 1.65 1.66-2.17 1.69-2.59Zm-.41-29.71c.13-.03.25-.05.37-.08-.1-1.37.22-3.06-1.65-2.6-2.31.57.36 1.99 1.28 2.68Zm-.01-4.08c-.12-.93-1.13-2.81-2.38-1.9-1.43 1.04 1.66 1.65 2.38 1.9Z"></path>
        <path class="cls-7" d="M193.33 307.64c-.05 5.64-.02 11.27-.02 16.91v16.8c0 1.4-.2 1.58-1.6 1.57-3.08-.01-6.16-.04-9.24.01-1.04.02-1.43-.36-1.44-1.38-.07-11.08-.18-22.15-.26-33.23-.01-1.69.55-2.19 2.26-2.2 2.92-.01 5.84.03 8.76-.02 1.13-.02 1.54.38 1.54 1.54Z"></path>
        <path class="cls-13" d="m176.98 339.45.48.15c-.03.42-.27 4.24-1.69 2.59-.71-.84.69-2.04 1.21-2.74ZM177.42 309.81c-.12.03-.24.05-.37.08-.92-.69-3.59-2.11-1.28-2.68 1.87-.46 1.55 1.23 1.65 2.6Z"></path>
        <path class="cls-3" d="M174.66 303.91c1.25-.91 2.26.97 2.38 1.9-.72-.25-3.81-.86-2.38-1.9Z"></path>
    </g>
    <g id="SvgjsG1049" data-name="Right Leg Image">
        <path d="M269.48 356.84c-1.96 2.32-3.9 5.53-2.27 8.42 1.74 3.08 4.48 5.89 6.63 8.69 2.39 3.11 4.77 6.21 7.16 9.31l6.36 8.28c1.98 2.58 3.47 4.7 6.97 4.48 3.84-.24 7.69-1.31 11.5-1.83 1.5-.2 2.04-.52 2.91.69.54.75 1.15 3.67.38 4.42-1.58 1.52-5.26-.26-7.27.73-1.3.64-1.64 1.92-2.59 2.91-.96 1-2.08 1.51-3.33 2.05-2.48 1.08-3.77 2.05-3.85 4.9-.09 3.4.67 6.98 1.1 10.34.4 3.18 1.27 6.56 1.31 9.76s-3.47 4.28-5.8 5.86c-2.15 1.47-5.54 3.03-5.53 6.01 0 3.33 1.67 7.17 2.31 10.46 1.35 6.88 2.56 13.79 3.87 20.67.66 3.46.76 7.77 2.02 11.05 1.07 2.82 3.54 3.02 6.14 3.67 1.8.46 4.78 2.73 2.23 4.56-2.13 1.53-5.08-.65-6.03 2.82-.85 3.15-.16 7.42-.19 10.69-.04 3.93 0 7.87-.13 11.79-.07 2.44-.45 4.8 1.37 6.73 2.14 2.27 6.04 3.39 8.78 4.77 3.2 1.61 6.39 3.23 9.56 4.9 3.18 1.66 5.39 3.94 8.08 6.24 4.86 4.16 11.98 1.01 17.64 2.74h42.24c.39-1.01 2.03-1.9 2.76-2.74.89-1.01 1.64-2.13 2.37-3.26 1.86-2.87 3.73-5.74 5.57-8.63 1.22-1.93 3.88-4.88 3.99-7.26.13-2.87-3.5-6.21-5.06-8.36-2.14-2.93-4.3-5.84-6.43-8.78-.93-1.27-2.01-2.37-2.29-3.94-.31-1.7.3-3.51.15-5.22-.27-3.22-1.82-6.5-2.87-9.52-.68-1.93-3.54-6.79-1.71-8.24.88-.7 2.99-.7 4.08-.93 1.77-.36 3.54-.72 5.31-1.09 1.63-.35 3.24-.57 4.67-1.47 1.33-.84 2.47-2 3.83-2.84 2.1-1.3 5.77-2.07 6.26-4.87.55-3.15-1.6-7.82-2.33-10.86-3.4-14.23-6.95-28.42-10.41-42.63-.68-2.8-.78-6.13-2.63-8.47-1.82-2.3-4.91-3.65-7.6-4.63-3.28-1.2-6.11-.17-9.05 1.4-3.23 1.73-6.52 3.3-9.83 4.86-.94.45-2.62 1.65-3.75 1.31-1.15-.35-2.09-2.57-2.69-3.48-.87-1.31-2.43-2.94-2.95-4.41-.57-1.57-.32-1.56 1.23-2.34 3.19-1.6 6.64-2.8 9.91-4.23 2.3-1 6.35-1.79 6.49-4.73.14-3.05-1.89-7.32-2.67-10.26-.91-3.47-1.88-6.93-2.78-10.41-1.85-7.08-3.6-14.2-5.32-21.31-1.67-6.93-3.51-13.83-5.38-20.71-.86-3.18-1.62-6.4-2.52-9.57-.66-2.32-3.39-7.19-2.23-9.52.57-1.15 1.75-1.49 2.07-2.93.35-1.57-.22-3.41-.47-4.95-.58-3.65-.88-7.62-1.93-11.17-.92-3.1-3.32-2.9-6.11-2.48-3.77.56-7.52 1.49-11.25 2.27-7.21 1.5-24 5.94-31.21 7.46-4.01.85-3.11 2.19-3.14 5.74-.04 3.85.35 9.46.09 13.3-.44 6.5.19 9.76.82 16.49.39 4.15 7.64 1.25 9.1.03 2.28-1.91 7.24-2.15 10.09-2.85 3.13-.77 6.44-1.93 9.65-2.29 2.96-.33 2.93 2.84 3.79 5.26.81 2.27 2.71 4.75.2 6.07-3.18 1.68-7.34 2.37-10.77 3.48-6.97 2.27-14.03 4.42-20.88 7.02-6.79 2.57-13.38 6.05-20.46 7.82-2.62.66-5.42.54-7.28 2.76Zm5.78 7.91c-.25-1.48 2.16-4.42 3.19-5.59 3.17-3.6 9.25-4.19 13.59-5.6 10.95-3.55 21.88-7.23 32.89-10.59 2.32 1.02 3.45 3.81 4.58 5.98 1.53 2.94 3 5.91 4.49 8.87 1.17 2.34 3.98 6.02 4.2 8.58.19 2.34-3.82 4.18-5.56 5.43-9.24 6.61-19.43 11.31-30.03 15.27-1.79.67-5.8 3.09-7.69 2.57-1.71-.47-3.45-3.88-4.45-5.15-3.55-4.54-7.11-9.07-10.65-13.61-1.26-1.62-4.21-4.12-4.56-6.16Zm15.81 80.92c-.02-2.62.68-3.45 3.18-4.23 2.46-.78 4.87-1.73 7.27-2.69 1.32-.53 1.99-.25 2 1.12.01 3.71 0 7.43-.08 11.14-.04 1.57-.62 2.93-2.09 3.82-2.08 1.26-4.13 2.57-6.15 3.93-1.31.89-1.67.86-1.97-.73-.77-4.11-1.44-8.24-2.16-12.36Zm4.71 22.71c.1-.01.2-.03.3-.04-.39-3.17 2.14-4.58 4.53-5.96 2.72-1.57 4.85-2.86 7.95-1.63 3.01 1.2 6.25 2.71 9.05 4.33 3.15 1.83.33 3.87-1.34 6.1-3.17 4.2-6.35 11.5-12.55 10.71-2.82-.36-4.94-.59-5.8-3.49-.97-3.24-1.44-6.71-2.14-10.02Zm3.51-55.11c-.22-2.38 7.47-5.76 8.94-4 1.05 1.25 1.21 5.04 1.63 6.62.48 1.86 1.87 4.69 1.09 6.59-.7 1.71-8.29 8.43-9.64 7.13-1.1-1.06-.91-6.56-1.08-7.96-.33-2.79-.67-5.58-.94-8.38Zm4.05 93.94c0-3.96-1.22-7.6 3.79-7.05 5.36.59 3.41 8.97 3.41 12.8h.13c0 2.67.88 7.06.04 9.58-.7 2.12-2.03 1.18-3.86.13-4.98-2.83-3.52-10.56-3.51-15.46Zm17.24-12.12c-2.63-.01-16.37 1.5-13.37-4.73.91-1.88 3.55-2.68 5.11-3.99 2.04-1.72 3.76-3.93 5.5-5.94 1.95-2.24 3.79-4.79 5.95-6.84 1.88-1.78 4.55-2.23 6.97-2.96 2.86-.85 5.71-1.69 8.58-2.51 2.78-.8 5.99-2.2 8.86-2.53 4.12-.47 1.09 6.52 3.65 8.84 1.94 1.76 5.87 2.64 8.26 3.63 2.35.98 4.9 1.81 7.14 3.04 2.3 1.25 3.01 3.22 4.06 5.5.58 1.28 3.51 5.65 3.2 6.98-.52 2.19-12.08.96-14.51.96h-18.05v.55c-7.12 0-14.23.01-21.35 0Zm-10.67-41.43c-.76-2.39-.1-6-.1-8.52s-.77-6.68.25-9.09c.95-2.26 4.03-2.84 6.09-3.57 5.76-2.04 11.45-4.24 17.18-6.36 3.07-1.14 6.17-2.19 9.25-3.28 1.15-.41 4.51-2.29 5.74-1.52 1.56.97 2.03 5.76 2.54 7.34.9 2.8 1.88 5.57 2.77 8.37.78 2.43 3.02 6.47 2.83 9-.19 2.57-4.2 3.08-6.22 3.85-6.04 2.3-12.12 4.5-18.21 6.65-2.93 1.03-6.48 2.96-9.59 3.2-2.43.19-5.19-1.29-7.38-2.18-2.09-.84-4.41-1.55-5.15-3.89Zm3.55 57.9c-.02-1.89-1.91-13.44 3.44-10.6 1.56.83 1.01 2.81 1.01 4.44v8.95h-.01c0 3.07-.02 6.14 0 9.21.01 2.15.52 5.36-2.25 3.24-2.06-1.58-2.12-3.47-2.13-5.9-.01-3.11-.04-6.23-.06-9.34Zm-2.4-79.5c.72-2.48 5.51-5.51 7.67-6.81 2.73-1.64 5.71-2.49 7.47-5.37.84-1.37 1.23-2.87 1.39-4.46.14-1.36-.29-3.38.54-4.58 1.53-2.21 7.39-1.23 9.74-1.27.4 0 3.83-.25 2.73 1.13-.67.85-3.91-.38-4.83-.54-1.62-.29-2.21-.61-2.63 1.05-.37 1.42-.3 4.09 0 5.51.35 1.61.93 1.65 2.5 1.05 1.1-.42 1.55-.57 2.81-.79 3.34-.58 6.78-2.19 9.69.37-2.41 2.12-5.98 2.78-8.96 3.92-3.17 1.2-6.29 2.54-9.45 3.76-3.2 1.25-6.4 2.47-9.58 3.74-2.94 1.17-5.96 2.83-9.09 3.29Zm5.04-27.04c-.31-1.72-.66-2.48.44-3.76.49-.58 3.35-2.38 4.14-2.23 1.98.36 3.22 7 3.69 8.84-.49 1.64-.98 2.48-2.21 3.73-.58.59-2.92 3.43-3.78 3.26-1.42-.29-2.02-8.46-2.28-9.84Zm7.34-7.69c-1.16-2.98-2.99-5.52.77-6.95 3.2-1.21 6.74-2.02 10.03-2.96 6.26-1.77 8.07 7.74 9.89 12.07.6 1.45 3.88 6.76 2.31 7.97-.79.62-3.02.19-3.97.19h-5.32c-2.39 0-7.65 1.04-9.6-.53-1.03-.82-1.57-3.24-2.04-4.44-.7-1.78-1.38-3.57-2.07-5.35Zm2.52-80.43c-1.74 0-2.89.41-2.69-1.41.11-.98 1.74-4.27 2.8-4.09.93.16 2.64 3.17 2.68 4.1.08 1.78-1.14 1.37-2.79 1.37v.03Zm.19 67.94c-.08-.12-.16-.24-.24-.37 1.49-2.07 4.68-2.87 7.02-3.54 2.88-.81 6.87-1.93 9.82-1.08-1.56 1.73-5.08 1.93-7.3 2.56-3.08.88-6.14 1.9-9.3 2.43Zm5.76-7.5c-2.29-1.64 6.99-5.66 8.64-4.84 2.23 1.12.82 2.32-.38 2.89-2.35 1.09-5.75 1.34-8.26 1.95Zm18.43 126.07c-.36-.38-.71-1.15-.55-1.51.17-.37.96-.62 1.49-.63 1.77-.03 3.55-.04 5.33-.04s3.56.01 5.34.01c3.52 0 7.04.06 10.56-.02 1.55-.03 2.6.64 3.38 1.86 3.39 5.31 6.85 10.58 10.12 15.97 1.57 2.59.51 4.43-2.13 5.25-.45.13-.95.13-1.43.15-8.1.41-16.21.81-24.31 1.23-1.75.09-2.02-.13-2.01-1.92 0-3.96 0-7.91.03-11.87.02-2.06-.8-3.69-2.3-5.06-1.22-1.1-2.41-2.22-3.52-3.42Zm18.99 32.72c-3.54.04-11.02 2.01-9.68-3.78.78-3.36 8.13-1.79 10.95-1.79v.05c2.81 0 5.7-.16 8.51-.01 2.13.12 3.03.32 1.93 2.41-2.34 4.4-7.5 3.08-11.71 3.12ZM359.1 414.11c2-1.9 4.67-2.67 7.2-3.69 1.59-.65 5.79-3.34 7.43-2.46 1.45.78 1.77 6.93 2.07 8.47.66 3.34 1.28 6.69 1.92 10.03 1.25 6.47 2.71 12.89 4.03 19.35 1.35 6.56 3.2 13.26 4 19.91.42 3.51-2.79 3.6-5.65 4.54-2.41.78-4.82 2.71-6.08-.26-1.17-2.76-1.59-6.32-2.4-9.24-.93-3.3-1.74-6.63-2.61-9.94-3.23-12.25-6.92-24.4-9.91-36.71Zm18.2-5.26c.02-2.18 2.75-.72 3.58.11 1.61 1.63 1.73 4.35 2.21 6.45 1.24 5.51 2.64 10.97 3.95 16.46 1.31 5.48 2.59 10.96 3.89 16.44.62 2.61 1.24 5.22 1.88 7.82.42 1.75 2.18 5.46 1.64 7.25-.47 1.54-3.93 2.45-5.06 1.31-1.17-1.16-1.16-4.93-1.49-6.54-1.15-5.55-2.3-11.11-3.47-16.65-2.29-10.89-4.98-21.74-7.13-32.65Z"></path>
        <path class="cls-4" d="M278.45 359.16c-1.03 1.17-3.44 4.11-3.19 5.59.35 2.04 3.3 4.54 4.56 6.16 3.54 4.54 7.1 9.07 10.65 13.61 1 1.27 2.74 4.68 4.45 5.15 1.89.52 5.9-1.9 7.69-2.57 10.6-3.96 20.79-8.66 30.03-15.27 1.74-1.25 5.75-3.09 5.56-5.43-.22-2.56-3.03-6.24-4.2-8.58-1.49-2.96-2.96-5.93-4.49-8.87-1.13-2.17-2.26-4.96-4.58-5.98-11.01 3.36-21.94 7.04-32.89 10.59-4.34 1.41-10.42 2-13.59 5.6Z"></path>
        <path class="cls-13" d="M294.25 441.44c-2.5.78-3.2 1.61-3.18 4.23.72 4.12 1.39 8.25 2.16 12.36.3 1.59.66 1.62 1.97.73 2.02-1.36 4.07-2.67 6.15-3.93 1.47-.89 2.05-2.25 2.09-3.82.08-3.71.09-7.43.08-11.14-.01-1.37-.68-1.65-2-1.12-2.4.96-4.81 1.91-7.27 2.69Z"></path>
        <path class="cls-7" d="M296.08 468.34c-.1.01-.2.03-.3.04.7 3.31 1.17 6.78 2.14 10.02.86 2.9 2.98 3.13 5.8 3.49 6.2.79 9.38-6.51 12.55-10.71 1.67-2.23 4.49-4.27 1.34-6.1-2.8-1.62-6.04-3.13-9.05-4.33-3.1-1.23-5.23.06-7.95 1.63-2.39 1.38-4.92 2.79-4.53 5.96Z"></path>
        <path class="cls-13" d="M308.23 409.27c-1.47-1.76-9.16 1.62-8.94 4 .27 2.8.61 5.59.94 8.38.17 1.4-.02 6.9 1.08 7.96 1.35 1.3 8.94-5.42 9.64-7.13.78-1.9-.61-4.73-1.09-6.59-.42-1.58-.58-5.37-1.63-6.62Z"></path>
        <path class="cls-1" d="M307.13 500.16c-5.01-.55-3.79 3.09-3.79 7.05-.01 4.9-1.47 12.63 3.51 15.46 1.83 1.05 3.16 1.99 3.86-.13.84-2.52-.04-6.91-.04-9.58h-.13c0-3.83 1.95-12.21-3.41-12.8Z"></path>
        <path class="cls-4" d="M307.21 490.36c-3 6.23 10.74 4.72 13.37 4.73 7.12.01 14.23 0 21.35 0v-.55h18.05c2.43 0 13.99 1.23 14.51-.96.31-1.33-2.62-5.7-3.2-6.98-1.05-2.28-1.76-4.25-4.06-5.5-2.24-1.23-4.79-2.06-7.14-3.04-2.39-.99-6.32-1.87-8.26-3.63-2.56-2.32.47-9.31-3.65-8.84-2.87.33-6.08 1.73-8.86 2.53-2.87.82-5.72 1.66-8.58 2.51-2.42.73-5.09 1.18-6.97 2.96-2.16 2.05-4 4.6-5.95 6.84-1.74 2.01-3.46 4.22-5.5 5.94-1.56 1.31-4.2 2.11-5.11 3.99Z"></path>
        <path class="cls-13" d="M309.81 445.14c0 2.52-.66 6.13.1 8.52.74 2.34 3.06 3.05 5.15 3.89 2.19.89 4.95 2.37 7.38 2.18 3.11-.24 6.66-2.17 9.59-3.2 6.09-2.15 12.17-4.35 18.21-6.65 2.02-.77 6.03-1.28 6.22-3.85.19-2.53-2.05-6.57-2.83-9-.89-2.8-1.87-5.57-2.77-8.37-.51-1.58-.98-6.37-2.54-7.34-1.23-.77-4.59 1.11-5.74 1.52-3.08 1.09-6.18 2.14-9.25 3.28-5.73 2.12-11.42 4.32-17.18 6.36-2.06.73-5.14 1.31-6.09 3.57-1.02 2.41-.25 6.49-.25 9.09Z"></path>
        <path class="cls-1" d="M316.9 500.96c-5.35-2.84-3.46 8.71-3.44 10.6.02 3.11.05 6.23.06 9.34.01 2.43.07 4.32 2.13 5.9 2.77 2.12 2.26-1.09 2.25-3.24-.02-3.07 0-6.14 0-9.21h.01v-8.95c0-1.63.55-3.61-1.01-4.44Z"></path>
        <path class="cls-13" d="M318.73 425.25c-2.16 1.3-6.95 4.33-7.67 6.81 3.13-.46 6.15-2.12 9.09-3.29 3.18-1.27 6.38-2.49 9.58-3.74 3.16-1.22 6.28-2.56 9.45-3.76 2.98-1.14 6.55-1.8 8.96-3.92-2.91-2.56-6.35-.95-9.69-.37-1.26.22-1.71.37-2.81.79-1.57.6-2.15.56-2.5-1.05-.3-1.42-.37-4.09 0-5.51.42-1.66 1.01-1.34 2.63-1.05.92.16 4.16 1.39 4.83.54 1.1-1.38-2.33-1.14-2.73-1.13-2.35.04-8.21-.94-9.74 1.27-.83 1.2-.4 3.22-.54 4.58-.16 1.59-.55 3.09-1.39 4.46-1.76 2.88-4.74 3.73-7.47 5.37Z"></path>
        <path class="cls-7" d="M316.54 401.26c-1.1 1.28-.75 2.04-.44 3.76.26 1.38.86 9.55 2.28 9.84.86.17 3.2-2.67 3.78-3.26 1.23-1.25 1.72-2.09 2.21-3.73-.47-1.84-1.71-8.48-3.69-8.84-.79-.15-3.65 1.65-4.14 2.23Z"></path>
        <path class="cls-4" d="M324.21 390.38c-3.76 1.43-1.93 3.97-.77 6.95.69 1.78 1.37 3.57 2.07 5.35.47 1.2 1.01 3.62 2.04 4.44 1.95 1.57 7.21.53 9.6.53h5.32c.95 0 3.18.43 3.97-.19 1.57-1.21-1.71-6.52-2.31-7.97-1.82-4.33-3.63-13.84-9.89-12.07-3.29.94-6.83 1.75-10.03 2.96Z"></path>
        <path class="cls-13" d="M323.27 315.49c-.2 1.82.95 1.41 2.69 1.41v-.03c1.65 0 2.87.41 2.79-1.37-.04-.93-1.75-3.94-2.68-4.1-1.06-.18-2.69 3.11-2.8 4.09Z"></path>
        <path class="cls-7" d="M325.91 384.47c.08.13.16.25.24.37 3.16-.53 6.22-1.55 9.3-2.43 2.22-.63 5.74-.83 7.3-2.56-2.95-.85-6.94.27-9.82 1.08-2.34.67-5.53 1.47-7.02 3.54Z"></path>
        <path class="cls-13" d="M340.55 372.5c-1.65-.82-10.93 3.2-8.64 4.84 2.51-.61 5.91-.86 8.26-1.95 1.2-.57 2.61-1.77.38-2.89Z"></path>
        <path class="cls-7" d="M349.79 501.9c-.16.36.19 1.13.55 1.51 1.11 1.2 2.3 2.32 3.52 3.42 1.5 1.37 2.32 3 2.3 5.06-.03 3.96-.03 7.91-.03 11.87-.01 1.79.26 2.01 2.01 1.92 8.1-.42 16.21-.82 24.31-1.23.48-.02.98-.02 1.43-.15 2.64-.82 3.7-2.66 2.13-5.25-3.27-5.39-6.73-10.66-10.12-15.97-.78-1.22-1.83-1.89-3.38-1.86-3.52.08-7.04.02-10.56.02-1.78 0-3.56-.01-5.34-.01s-3.56.01-5.33.04c-.53.01-1.32.26-1.49.63ZM359.65 532.35c-1.34 5.79 6.14 3.82 9.68 3.78 4.21-.04 9.37 1.28 11.71-3.12 1.1-2.09.2-2.29-1.93-2.41-2.81-.15-5.7.01-8.51.01v-.05c-2.82 0-10.17-1.57-10.95 1.79Z"></path>
        <path class="cls-13" d="M366.3 410.42c-2.53 1.02-5.2 1.79-7.2 3.69 2.99 12.31 6.68 24.46 9.91 36.71.87 3.31 1.68 6.64 2.61 9.94.81 2.92 1.23 6.48 2.4 9.24 1.26 2.97 3.67 1.04 6.08.26 2.86-.94 6.07-1.03 5.65-4.54-.8-6.65-2.65-13.35-4-19.91-1.32-6.46-2.78-12.88-4.03-19.35-.64-3.34-1.26-6.69-1.92-10.03-.3-1.54-.62-7.69-2.07-8.47-1.64-.88-5.84 1.81-7.43 2.46Z"></path>
        <path class="cls-3" d="M380.88 408.96c-.83-.83-3.56-2.29-3.58-.11 2.15 10.91 4.84 21.76 7.13 32.65 1.17 5.54 2.32 11.1 3.47 16.65.33 1.61.32 5.38 1.49 6.54 1.13 1.14 4.59.23 5.06-1.31.54-1.79-1.22-5.5-1.64-7.25-.64-2.6-1.26-5.21-1.88-7.82-1.3-5.48-2.58-10.96-3.89-16.44-1.31-5.49-2.71-10.95-3.95-16.46-.48-2.1-.6-4.82-2.21-6.45Z"></path>
    </g>
    <g id="SvgjsG1048" data-name="Right Leg Connector Image">
        <path d="M296.34 302.27v46.8c4.12-.54 8.39.35 12.55-.03 2.04-.18 7.73-.16 8.98-1.8.64-.83.07-3.49.07-4.54v-19.25c0-4.43.01-8.85 0-13.28 0-2.24 1.11-8.18-1.04-9.08-2.81-1.18-5.94 1.5-8.62 1.57-3.87.11-8.18.48-11.95-.39Zm.93 23.28c0-5.64.03-11.27-.02-16.91 0-1.16.41-1.56 1.54-1.54 2.92.05 5.84.01 8.76.02 1.71.01 2.27.51 2.26 2.2-.08 11.08-.19 22.15-.26 33.23-.01 1.02-.4 1.4-1.44 1.38-3.08-.05-6.16-.02-9.24-.01-1.4.01-1.6-.17-1.6-1.57v-16.8Zm15.85 15.05.48-.15c.52.7 1.92 1.9 1.21 2.74-1.42 1.65-1.66-2.17-1.69-2.59Zm.41-29.71c-.13-.03-.25-.05-.37-.08.1-1.37-.22-3.06 1.65-2.6 2.31.57-.36 1.99-1.28 2.68Zm.01-4.08c.12-.93 1.13-2.81 2.38-1.9 1.43 1.04-1.66 1.65-2.38 1.9Z"></path>
        <path class="cls-7" d="M297.25 308.64c.05 5.64.02 11.27.02 16.91v16.8c0 1.4.2 1.58 1.6 1.57 3.08-.01 6.16-.04 9.24.01 1.04.02 1.43-.36 1.44-1.38.07-11.08.18-22.15.26-33.23.01-1.69-.55-2.19-2.26-2.2-2.92-.01-5.84.03-8.76-.02-1.13-.02-1.54.38-1.54 1.54Z"></path>
        <path class="cls-13" d="m313.6 340.45-.48.15c.03.42.27 4.24 1.69 2.59.71-.84-.69-2.04-1.21-2.74ZM313.16 310.81c.12.03.24.05.37.08.92-.69 3.59-2.11 1.28-2.68-1.87-.46-1.55 1.23-1.65 2.6Z"></path>
        <path class="cls-3" d="M315.92 304.91c-1.25-.91-2.26.97-2.38 1.9.72-.25 3.81-.86 2.38-1.9Z"></path>
    </g>
    <g id="SvgjsG1047" data-name="S Body Image">
        <path d="M307.79 346.07c1.26 8.57-1.05 16.16-5.88 22.96-1.59 2.22-3.45 4.22-5.19 6.33H182.96v-31.84h33.74c.08-.13.16-.27.24-.39-.48-.78-.82-1.78-1.49-2.3-1.24-.97-2.6-1.88-4.03-2.44-5.9-2.27-11.85-4.37-17.76-6.59-.95-.35-1.94-.86-2.65-1.57-3.47-3.49-6.14-7.6-8.15-12.2-2.54-5.82-3.51-11.89-2.4-18.26 1.36-7.77 5.31-13.93 10.7-19.16.39-.38 1.06-.6 1.61-.6 37.03-.03 74.06-.02 111.09-.05 1.06 0 1.34.34 1.33 1.46-.04 9.64-.02 19.3-.02 28.96 0 1.79-.49 2.31-2.23 2.34-7.24.16-14.48.31-21.71.46-.41.01-.81.04-1.22.06 1.44 1.03 2.93 1.73 4.35 2.59 6.14 3.71 12.25 7.43 16.51 13.76 3.37 5.01 6.02 10.33 6.92 16.48Zm-8.05 18.44c2.98-6.25 3.74-13.29 2.19-20.1-3.07-13.47-12.92-22.31-24.22-28.04-3.14-1.6-6.18-3.42-9.59-4.27-3.1-.79-6.16-.49-9.31-.51-3.76-.03-7.53-.32-11.29-.52l-5.19-.29c-1.05-.05-3.28.32-4.08-.38v-2.89c13.98 0 27.98-.53 41.96-.82 3.54-.07 7.08-.15 10.62-.22 1.84-.03 6.88.88 7.99-.88.57-.9.04-3.88.04-4.98-.01-1.88-.01-3.76-.01-5.65 0-3.69.14-7.41-.06-11.09h-51.01c-15.15 0-30.29-.02-45.44.01-4.16.01-7.23-.72-10.23 2.69-2.02 2.31-3.75 4.9-5.1 7.71-3.1 6.43-4.02 13.69-2.38 20.73 1.27 5.46 4.43 14.21 9.76 16.34 6.45 2.58 13.77 3.75 19.89 7.21 1.24.7 5.22 3.86 4.04 5.83-.74 1.24-8.01.3-9.29.29-7.1-.04-14.2-.11-21.31-.11v24.66c16.46 0 32.92.33 49.37.5 15.02.16 30.05.32 45.07.46 3.72.03 7.45.06 11.18.1 3.86.03 4.73-2.24 6.4-5.76Z"></path>
        <path d="M301.93 344.41c1.55 6.81.79 13.85-2.19 20.1-1.67 3.52-2.54 5.8-6.4 5.76-3.73-.03-7.46-.06-11.18-.1-15.02-.14-30.05-.3-45.07-.46-16.45-.17-32.91-.5-49.37-.5v-24.66c7.11 0 14.21.06 21.31.11 1.28.01 8.55.96 9.29-.29 1.18-1.97-2.8-5.13-4.04-5.83-6.12-3.46-13.44-4.63-19.89-7.21-5.33-2.14-8.49-10.89-9.76-16.34-1.64-7.04-.72-14.29 2.38-20.73 1.35-2.81 3.08-5.4 5.1-7.71 3-3.41 6.07-2.68 10.23-2.69 15.15-.03 30.29-.01 45.44-.01h51.01c.2 3.68.06 7.4.06 11.09 0 1.88 0 3.76.01 5.65 0 1.1.53 4.07-.04 4.98-1.11 1.77-6.15.85-7.99.88-3.54.07-7.08.15-10.62.22-13.98.29-27.98.82-41.96.82v2.89c.8.7 3.03.33 4.08.38l5.19.29c3.76.2 7.53.49 11.29.52 3.15.02 6.21-.28 9.31.51 3.41.85 6.45 2.68 9.59 4.27 11.3 5.73 21.15 14.57 24.22 28.04Z" style="fill:#369"></path>
        <path class="cls-8" d="M191.24 329.8c.66 1.43 2.1 1.56 3.25 2 3.4 1.3 6.87 2.42 10.31 3.61.23.08.48.09.72.13M210.92 337.71c.12.04.24.09.36.13"></path>
    </g>
    <g id="SvgjsG1046" data-name="U Body Image">
        <path d="M294.99 297.86c3.94 2.87 2.38 11.27 2.29 15.43-.13 6.43-.3 12.85-.47 19.27-.14 5.17.94 12.18-1.59 16.91-1.26 2.35-3.51 3.08-5.78 4.2-2.66 1.32-5.31 2.69-7.96 4.03-5.29 2.66-10.5 4.13-15.93 6.67-5.92 2.76-10.61 4.27-17.21 4.15-6.12-.11-13.24 1.07-19.19-.52-5.77-1.54-11.75-5.03-17.03-7.78-2.19-1.15-3.9-2.77-6.19-3.89-2.6-1.28-5.2-2.57-7.78-3.88-3.02-1.53-4.93-2.91-5.81-6.33-.68-2.64-.44-5.56-.5-8.27-.15-6.53-.26-13.05-.38-19.58l-.18-9.93c-.05-2.7-.55-5.86.33-8.46.7-2.06 2.03-3.39 4.22-3.72 1.12-.16 4.75.69 5.45-.42.45-.71-.54-1.88-.69-2.56-.27-1.18-.11-2.18.6-3.18 1.36-1.92 4.29-2.95 6.25-4.09h3.12c3.81.32 7.57.66 11.4.65 1.95-.01 6.89-1.09 8.2.67 1.68 2.26-.96 5.77 2.42 6.77 3.12.92 7.19.23 10.42.25 3.29.03 6.6 0 9.86-.46 3.77-.54 2.36-1.65 3.16-4.71.81-3.16 4.18-2.5 6.78-2.53 3.48-.05 6.96-.09 10.44-.12 5.09-.06 12.1-1.62 12.84 5.31.28 2.57-1.91 4.93 1.46 5.2 2.45.2 5.31-.65 7.45.92Zm-7.2 49.48c3.67-1.74 4.81-3.43 4.77-7.52-.05-4.69-.01-9.39-.01-14.08h-.09c0-4.86 0-9.73-.01-14.59-.01-1.41.45-2.99-1.08-3.33-1-.22-3.74.92-4.71 1.28-3.68 1.37-2.92 5.35-3.17 8.72-.36 4.88-.72 9.76-1.09 14.64-.35 4.66-.71 9.31-1.05 13.97-.11 1.5-.82 3.41.88 3.6 1.35.15 4.31-2.1 5.56-2.69Zm5.11-42.92c-1.27-.81-2.52-.59-4.02-.59v.11c-.9 0-3.09-.46-3.81.15-.66.56-.91 2.11-.17 2.69 1.2.93 7.1-1.28 8-2.36Zm-11.41-8.39c.08-1.18.65-2.83-.49-3.54-.77-.48-3.05-.06-3.86-.06-3.55.01-7.09.02-10.64.02-1.35 0-4.9-.72-5.88.49-.71.88.21 2.38.35 3.25.2 1.14.06 2.23 0 3.36-.19 3.11-.13 6.26-.18 9.38-.09 6.87-.17 13.74-.26 20.61h.06c0 3.94-.05 7.89-.02 11.83.02 3.28.38 6.68-.77 9.83-1.22 3.33-3.14 4.95-6.66 5.09-3.82.16-7.66.05-11.47.03-6.12-.03-13.09 1.37-15.2-5.94-.95-3.29-.49-7.25-.55-10.64-.07-3.72-.12-7.44-.19-11.15-.12-7.07-.26-14.13-.38-21.19-.02-1.61.83-7.04-.36-8.24-1.16-1.17-6.68-.25-8.22-.25h-5.27c-1.19 0-3.67-.46-4.73.02-1.87.83-.84 3.34-.66 5.22.61 6.42 1.07 12.84 1.49 19.26.41 6.37.94 12.71 1.37 19.08.19 2.95 0 6.4.82 9.27.77 2.72 3.07 3.6 5.44 4.76 5.55 2.71 11.08 6.6 17.41 6.69 6.67.09 13.35.17 20.02.14 6.22-.04 11.63-3.62 17.18-6.05 2.15-.94 5.74-1.85 6.98-4.04 1.1-1.95.73-5.54.93-7.71 1.23-13.14 1.75-26.32 2.95-39.47.3-3.34.58-6.69.8-10.05Zm-23.96 5.23c.03-1.18-.53-1.51-1.61-1.5-4.24.04-8.48.02-12.71.02s-8.48.06-12.71-.03c-1.27-.03-1.5.5-1.48 1.55.03 1.51.16 1.69 1.48 1.69h25.41c1.38 0 1.58-.26 1.62-1.73Zm-.5 6.09c.08-1.69-.13-1.86-1.74-1.86-7.99.02-15.99.02-23.99 0-1.55-.01-1.8.2-1.71 1.77.26 4.55.5 9.1.75 13.65.52 9.34 1.06 18.68 1.57 28.02.05.93.38 1.33 1.38 1.32 6.76-.04 13.52-.02 20.28-.02 1.39 0 1.65-.25 1.71-1.55.27-6.95.54-13.9.85-21.71.27-5.97.58-12.8.9-19.62Zm-32.24-11.92c1.92-4.69-7.08-2.91-9.56-2.91v.03c-2.25 0-9.12-1.3-9.71 1.26-1.13 4.9 7.19 3.1 9.78 3.1s8.33 1.38 9.49-1.48Zm-18.65 53.68c-1.08-8.58-1.56-17.25-2.26-25.87-.18-2.19-.35-4.38-.53-6.56-.16-2.11.14-4.99-.56-6.97-.49-1.42-5.23-3.57-6.49-2.42-.94.85-.31 4.34-.32 5.51 0 2.19 0 4.39-.01 6.59 0 4.33-.01 8.67-.02 13 0 3.15-1.16 8.64.63 11.42 1.68 2.59 6.85 3.98 9.56 5.3Zm-10.59-45.45c1.08.9 7.66 3.84 7.61.94-.04-2.7-6.12-1.68-7.61-.94Z"></path>
        <path class="cls-7" d="M292.56 339.82c.04 4.09-1.1 5.78-4.77 7.52-1.25.59-4.21 2.84-5.56 2.69-1.7-.19-.99-2.1-.88-3.6.34-4.66.7-9.31 1.05-13.97.37-4.88.73-9.76 1.09-14.64.25-3.37-.51-7.35 3.17-8.72.97-.36 3.71-1.5 4.71-1.28 1.53.34 1.07 1.92 1.08 3.33.02 4.86.01 9.73.01 14.59h.09c0 4.69-.04 9.39.01 14.08Z"></path>
        <path class="cls-4" d="M288.88 303.83c1.5 0 2.75-.22 4.02.59-.9 1.08-6.8 3.29-8 2.36-.74-.58-.49-2.13.17-2.69.72-.61 2.91-.15 3.81-.15v-.11Z"></path>
        <path d="M281 292.49c1.14.71.57 2.36.49 3.54-.22 3.36-.5 6.71-.8 10.05-1.2 13.15-1.72 26.33-2.95 39.47-.2 2.17.17 5.76-.93 7.71-1.24 2.19-4.83 3.1-6.98 4.04-5.55 2.43-10.96 6.01-17.18 6.05-6.67.03-13.35-.05-20.02-.14-6.33-.09-11.86-3.98-17.41-6.69-2.37-1.16-4.67-2.04-5.44-4.76-.82-2.87-.63-6.32-.82-9.27-.43-6.37-.96-12.71-1.37-19.08-.42-6.42-.88-12.84-1.49-19.26-.18-1.88-1.21-4.39.66-5.22 1.06-.48 3.54-.02 4.73-.02h5.27c1.54 0 7.06-.92 8.22.25 1.19 1.2.34 6.63.36 8.24.12 7.06.26 14.12.38 21.19.07 3.71.12 7.43.19 11.15.06 3.39-.4 7.35.55 10.64 2.11 7.31 9.08 5.91 15.2 5.94 3.81.02 7.65.13 11.47-.03 3.52-.14 5.44-1.76 6.66-5.09 1.15-3.15.79-6.55.77-9.83-.03-3.94.02-7.89.02-11.83h-.06c.09-6.87.17-13.74.26-20.61.05-3.12-.01-6.27.18-9.38.07-1.13.21-2.22 0-3.36-.14-.87-1.06-2.37-.35-3.25.98-1.21 4.53-.49 5.88-.49 3.55 0 7.09-.01 10.64-.02.81 0 3.09-.42 3.86.06Z" style="fill:#f93"></path>
        <path class="cls-3" d="M255.92 299.76c1.08 0 1.64.32 1.61 1.5-.04 1.47-.24 1.73-1.62 1.73H230.5c-1.32 0-1.45-.18-1.48-1.69-.02-1.05.21-1.58 1.48-1.55 4.23.09 8.47.03 12.71.03s8.47.02 12.71-.02Z"></path>
        <path class="cls-4" d="M255.29 305.49c1.61 0 1.82.17 1.74 1.86-.32 6.82-.63 13.65-.9 19.62-.31 7.81-.58 14.76-.85 21.71-.06 1.3-.32 1.55-1.71 1.55-6.76 0-13.52-.02-20.28.02-1 .01-1.33-.39-1.38-1.32-.51-9.34-1.05-18.68-1.57-28.02-.25-4.55-.49-9.1-.75-13.65-.09-1.57.16-1.78 1.71-1.77 8 .02 16 .02 23.99 0Z"></path>
        <path d="M215.23 292.52c2.48 0 11.48-1.78 9.56 2.91-1.16 2.86-6.86 1.48-9.49 1.48s-10.91 1.8-9.78-3.1c.59-2.56 7.46-1.26 9.71-1.26v-.03Z" style="fill:#fc6"></path>
        <path class="cls-7" d="M203.88 323.24c.7 8.62 1.18 17.29 2.26 25.87-2.71-1.32-7.88-2.71-9.56-5.3-1.79-2.78-.63-8.27-.63-11.42.01-4.33.02-8.67.02-13 .01-2.2.01-4.4.01-6.59 0-1.17-.62-4.66.32-5.51 1.26-1.15 6 1 6.49 2.42.7 1.98.4 4.86.56 6.97.18 2.18.35 4.37.53 6.56Z"></path>
        <path class="cls-4" d="M203.16 304.6c.05 2.9-6.53-.04-7.61-.94 1.49-.74 7.57-1.76 7.61.94Z"></path>
    </g>
    <g id="SvgjsG1045" data-name="Left Arm Image">
        <path d="M56.9 300.59v3.12c2.67 4.03 9.07 2.6 12.95 4.55 1.51.76 1.33 1.41 1.5 3.03.26 2.55 1.26 2.38 3.69 2.73 1.65.23 2.05.42 3.55-.46 1.2-.7 1.27-1.1 2.81-1.06 2.84.07 5.79.83 8.61 1.16 5.98.7 11.97 1.23 17.95 1.93 2.31.26 5.9 1.33 8.1.25 1.97-.96 2.22-3.72 2.74-5.64 1.62-5.91 3-11.87 4.62-17.78.73-2.64 1.14-5.49 2.71-7.81 1.28-1.89 3.15-3.33 4.78-4.91 4.5-4.37 5.76-8.26 6.29-14.39.52-5.96 1.13-11.92 1.72-17.87.5-5.01 2.46-11.17-1.21-15.34-3.02-3.44-6.8-6.67-11.1-8.31-5.17-1.96-10.91-2.98-16.23-4.54-2.36-.68-5.92-.95-7.92-2.39-2.01-1.44-1.39-4.23-1.4-6.41 0-2.59-.92-5.47 2.31-4.82 2.87.58 5.78 1.9 8.5 2.95 5.56 2.15 11.2 3.97 16.9 5.71 3.1.95 6.19 1.9 9.3 2.83 1.78.53 5.23 2.42 7.04 1.28 1.64-1.02 1.47-4.43 1.52-6.13.08-2.66-.75-5.12-.75-7.8.08-24.91-.02-49.82.01-74.74 0-6.2.03-12.41.04-18.62.02-4.27 1.32-9.48-4.46-9.48-3.56 0-13.03 4.07-14.94.01-1.42-3.03-.98-11.51-5.22-12.45-2.17-.48-5.71 2.05-7.55 2.91l-7.59 3.57c-5.27 2.48-10.52 4.95-15.84 7.33-4.69 2.09-11.27 3.84-14.76 7.81-3.18 3.61-2.92 10.58-3.61 15.11-1.79 11.75-3.65 23.53-5.79 35.23-1.09 5.92-2.13 11.8-2.96 17.77-.31 2.25-1.75 6.19-1.04 8.34.63 1.9 2.83 1.24 4.6 1.24 3.35-.01 6.73-.14 10.08-.03 1.81.06 2.42.13 2.67 1.96.43 3.13-.01 6.61-.01 9.76 0 2.03.78 6.31-.07 8.14-.8 1.72-3.22 1.47-4.88 2.15-1.81.74-3.94 1.84-5.55 2.96-2.12 1.48-1.8 4.57-2.12 6.96-.37 2.78-.75 5.57-1.14 8.35-3.42 23.88-5.49 47.95-8.85 71.84Zm6.49-1.51c-.92-2 .23-5.76.43-7.94.23-2.68.2-4.6 2.39-6.31 1.2-.95 2.66-1.68 3.95-2.49.91-.57 2.91-2.41 3.95-2.47.79-.04.66-.75 1.26.13.57.83.01 2.95-.04 3.9-.04-.01-.09-.01-.13-.01l-.42 9.09c-.1 2.06.57 6.74-.44 8.61-1.34 2.46-9.93-.28-10.95-2.51Zm1.35-19.83c-.6-4.65 1.43-10.2 2.12-14.85.76-5.24 1.44-10.49 2.12-15.74.69-5.3 1.41-10.6 2.32-15.87.43-2.48.81-4.93 1.12-7.43.25-1.97.14-4.54 1.51-6.02.69.87.74 1.24.74 2.36-1.09 10.54-1.78 21.12-2.76 31.67-.51 5.52-.78 11.05-1.2 16.58-.31 4.09-1.62 8.14-5.97 9.3Zm4.17-97.55c-1.12-1.33.39-5.23.65-6.72.52-2.91 1.05-5.82 1.58-8.74 2.08-11.52 3.76-23.11 5.78-34.65.52-2.98 1.03-5.98 1.63-8.95.28-1.43.39-3.89 1.58-4.87 1.37-1.13 3.01-.21 3.38 1.29.5 2.06-.8 5.79-1.12 7.9-1.54 10.39-2.75 20.85-4.5 31.2-.26 1.54-1.74 5.45-1.06 6.87.45.95 2.1 1.45 2.98.72 1.18-.98 1.04-4.05 1.25-5.41.33-2.11.65-4.22.98-6.32 1.66-10.65 3.13-21.34 4.48-32.03.22-1.76 0-2.87 1.58-3.7 1.87-.97 4.92-1.03 6.99-1.45 2.52-.51 5.03-1.03 7.55-1.54 1.24-.26 4.32-1.55 5.57-1.11 2.04.74.66 8.52.52 10.47-.36 5.17-1.31 10.29-1.95 15.42-1.27 10.17-2.9 20.29-4.06 30.47-.35 3 .26 10.56-3.33 11.62-2.03.6-4.99.06-7.11.06h-7.52c-3.01-.01-6.01 0-9.01-.01-1.52 0-5.73.81-6.84-.52Zm7.35 91.27c-.41-.41-.91-1-.9-1.51.09-5.2.2-10.4.43-15.59.29-6.71.68-13.41 1.03-20.12-.08-.01-.16-.01-.24-.01.24-4.84.5-9.67.72-14.5.09-2.13.52-2.43 2.43-1.59.18.09.37.15.57.2 4.44 1.3 8.88 2.61 13.33 3.9 3.41.99 3.42 1 3.34 4.51-.06 2.83 1.36 4.72 3.75 6.06 1.2.66 2.39 1.39 3.45 2.26 4.67 3.82 9.29 7.7 13.94 11.55 1.12.93 1.15 1.34.06 2.22-1.57 1.26-2.33 3-2.43 4.9-.79 15.69-1.5 31.39-2.26 47.08-.09 1.87-.27 3.75-.54 5.6-.22 1.56-.79 1.88-2.31 1.67-.91-.13-1.82-.24-2.74-.32-2.69-.24-3.48-1.09-3.45-3.82.06-5.48.15-10.96.22-16.44.03-2.32.15-4.64.04-6.95-.1-2.04-1.27-3.28-3.29-3.73-3.78-.83-7.58-1.59-11.38-2.37-4.19-.85-8.37-1.69-12.55-2.55-.43-.09-.95-.17-1.22-.45Zm7.81-159.37c-2.06-2.01 5.75-4.1 7.36-4.75 3.4-1.4 6.77-2.86 10.16-4.31 3.59-1.53 7.18-3.05 10.77-4.58 1.62-.69 3.41-1.84 5.13-2.2 1.61-.33 1.7.01 2.19 1.51.34 1.06 1.42 4.22 1.14 5.36-.29 1.22-1.38 1.26-2.54 1.54-3.82.92-7.71 1.64-11.55 2.49-7.54 1.68-15.15 3.1-22.66 4.94Zm3.75 167.64c.27-2.81 3.73-1.77 3.46.65-.32 2.91-3.44 1.77-3.46-.65Zm14.25-52.96c-2.12-4.54 4.14-1.66 6.19-1.15 7.63 1.92 17.27 3.43 23.39 8.85 2.83 2.5 1.08 7.01.79 10.33-.24 2.75-.55 3.2-3.38 3.23-4.32 0-5.1-2-7.91-4.71-3.33-3.21-7.16-6.06-10.75-8.99-2.64-2.16-6.84-4.39-8.33-7.56Zm4.01-27.9c-1.68-.57-4.44-1.01-2.2-2.54 1.96-1.34 5.01-2.04 7.23-2.98 2.26-.95 4.54-1.9 6.68-3.11 3.78-2.14 6.94-5.66 10.95-7.36 2.14-.91 9.7-2.21 11.28-.08.8 1.08.17 4.99.17 6.27v7.41h-.01v8.03c0 1.04.61 5-.45 5.72-1.05.71-4.51-1.27-5.46-1.63-2.29-.86-4.61-1.66-6.93-2.43-4.73-1.58-9.46-3.2-14.17-4.84-2.36-.82-4.72-1.65-7.09-2.46Zm6.79-82.44c-.42-2.17-1.18-3.5 1.1-4.23 2.72-.87 5.9-1.04 8.71-1.52 3.26-.57 6.52-1.12 9.78-1.74 1.65-.31 5.67-2.03 7.17-1.35 1.63.75.82 5.02.82 6.46v28.06h-.02v22c0 3.41.15 6.85.02 10.26-.15 3.79-3.41 2.6-6.52 2.59-2 0-7.52.98-8.93-.47-1.23-1.27-1.26-5.59-1.61-7.32-1.16-5.7-2.24-11.41-3.33-17.13-2.27-11.9-4.92-23.72-7.19-35.61Zm6.88 160.67c-.03-3.23 0-6.46 0-9.69h.1c0-3.24-.03-6.47 0-9.7.03-2.01-.14-3.81 1.96-4.66 1.45-.59 7.31-1.09 8.62-.32 1.81 1.06.57 6.06.46 7.94-.19 3.13.23 7.11-1.43 9.83-1.62 2.67-4.26 5.1-6.37 7.4-2.11 2.31-3.31 2.65-3.34-.8Z"></path>
        <path class="cls-7" d="M63.82 291.14c-.2 2.18-1.35 5.94-.43 7.94 1.02 2.23 9.61 4.97 10.95 2.51 1.01-1.87.34-6.55.44-8.61l.42-9.09s.09 0 .13.01c.05-.95.61-3.07.04-3.9-.6-.88-.47-.17-1.26-.13-1.04.06-3.04 1.9-3.95 2.47-1.29.81-2.75 1.54-3.95 2.49-2.19 1.71-2.16 3.63-2.39 6.31Z"></path>
        <path class="cls-3" d="M66.86 264.4c-.69 4.65-2.72 10.2-2.12 14.85 4.35-1.16 5.66-5.21 5.97-9.3.42-5.53.69-11.06 1.2-16.58.98-10.55 1.67-21.13 2.76-31.67 0-1.12-.05-1.49-.74-2.36-1.37 1.48-1.26 4.05-1.51 6.02-.31 2.5-.69 4.95-1.12 7.43-.91 5.27-1.63 10.57-2.32 15.87-.68 5.25-1.36 10.5-2.12 15.74Z"></path>
        <path class="cls-4" d="M69.56 174.98c-.26 1.49-1.77 5.39-.65 6.72 1.11 1.33 5.32.52 6.84.52 3 .01 6 0 9.01 0 2.51.01 5.02.01 7.52.01 2.12 0 5.08.54 7.11-.06 3.59-1.06 2.98-8.62 3.33-11.62 1.16-10.18 2.79-20.3 4.06-30.47.64-5.13 1.59-10.25 1.95-15.42.14-1.95 1.52-9.73-.52-10.47-1.25-.44-4.33.85-5.57 1.11-2.52.51-5.03 1.03-7.55 1.54-2.07.42-5.12.48-6.99 1.45-1.58.83-1.36 1.94-1.58 3.7-1.35 10.69-2.82 21.38-4.48 32.03-.33 2.1-.65 4.21-.98 6.32-.21 1.36-.07 4.43-1.25 5.41-.88.73-2.53.23-2.98-.72-.68-1.42.8-5.33 1.06-6.87 1.75-10.35 2.96-20.81 4.5-31.2.32-2.11 1.62-5.84 1.12-7.9-.37-1.5-2.01-2.42-3.38-1.29-1.19.98-1.3 3.44-1.58 4.87-.6 2.97-1.11 5.97-1.63 8.95-2.02 11.54-3.7 23.13-5.78 34.65-.53 2.92-1.06 5.83-1.58 8.74ZM75.36 271.46c-.01.51.49 1.1.9 1.51.27.28.79.36 1.22.45 4.18.86 8.36 1.7 12.55 2.55 3.8.78 7.6 1.54 11.38 2.37 2.02.45 3.19 1.69 3.29 3.73.11 2.31-.01 4.63-.04 6.95-.07 5.48-.16 10.96-.22 16.44-.03 2.73.76 3.58 3.45 3.82.92.08 1.83.19 2.74.32 1.52.21 2.09-.11 2.31-1.67.27-1.85.45-3.73.54-5.6.76-15.69 1.47-31.39 2.26-47.08.1-1.9.86-3.64 2.43-4.9 1.09-.88 1.06-1.29-.06-2.22-4.65-3.85-9.27-7.73-13.94-11.55-1.06-.87-2.25-1.6-3.45-2.26-2.39-1.34-3.81-3.23-3.75-6.06.08-3.51.07-3.52-3.34-4.51-4.45-1.29-8.89-2.6-13.33-3.9-.2-.05-.39-.11-.57-.2-1.91-.84-2.34-.54-2.43 1.59-.22 4.83-.48 9.66-.72 14.5.08 0 .16 0 .24.01-.35 6.71-.74 13.41-1.03 20.12-.23 5.19-.34 10.39-.43 15.59Z"></path>
        <path class="cls-13" d="M91.43 108.85c-1.61.65-9.42 2.74-7.36 4.75 7.51-1.84 15.12-3.26 22.66-4.94 3.84-.85 7.73-1.57 11.55-2.49 1.16-.28 2.25-.32 2.54-1.54.28-1.14-.8-4.3-1.14-5.36-.49-1.5-.58-1.84-2.19-1.51-1.72.36-3.51 1.51-5.13 2.2-3.59 1.53-7.18 3.05-10.77 4.58-3.39 1.45-6.76 2.91-10.16 4.31Z"></path>
        <path class="cls-6" d="M91.28 281.89c.27-2.42-3.19-3.46-3.46-.65.02 2.42 3.14 3.56 3.46.65Z"></path>
        <path class="cls-13" d="M108.26 227.13c-2.05-.51-8.31-3.39-6.19 1.15 1.49 3.17 5.69 5.4 8.33 7.56 3.59 2.93 7.42 5.78 10.75 8.99 2.81 2.71 3.59 4.71 7.91 4.71 2.83-.03 3.14-.48 3.38-3.23.29-3.32 2.04-7.83-.79-10.33-6.12-5.42-15.76-6.93-23.39-8.85Z"></path>
        <path class="cls-4" d="M103.88 197.84c-2.24 1.53.52 1.97 2.2 2.54 2.37.81 4.73 1.64 7.09 2.46 4.71 1.64 9.44 3.26 14.17 4.84 2.32.77 4.64 1.57 6.93 2.43.95.36 4.41 2.34 5.46 1.63 1.06-.72.45-4.68.45-5.72v-8.03h.01v-7.41c0-1.28.63-5.19-.17-6.27-1.58-2.13-9.14-.83-11.28.08-4.01 1.7-7.17 5.22-10.95 7.36-2.14 1.21-4.42 2.16-6.68 3.11-2.22.94-5.27 1.64-7.23 2.98Z"></path>
        <path class="cls-13" d="M113.97 113.71c-2.28.73-1.52 2.06-1.1 4.23 2.27 11.89 4.92 23.71 7.19 35.61 1.09 5.72 2.17 11.43 3.33 17.13.35 1.73.38 6.05 1.61 7.32 1.41 1.45 6.93.47 8.93.47 3.11.01 6.37 1.2 6.52-2.59.13-3.41-.02-6.85-.02-10.26v-22h.02v-28.06c0-1.44.81-5.71-.82-6.46-1.5-.68-5.52 1.04-7.17 1.35-3.26.62-6.52 1.17-9.78 1.74-2.81.48-5.99.65-8.71 1.52Z"></path>
        <path class="cls-7" d="M119.75 268.92c0 3.23-.03 6.46 0 9.69.03 3.45 1.23 3.11 3.34.8 2.11-2.3 4.75-4.73 6.37-7.4 1.66-2.72 1.24-6.7 1.43-9.83.11-1.88 1.35-6.88-.46-7.94-1.31-.77-7.17-.27-8.62.32-2.1.85-1.93 2.65-1.96 4.66-.03 3.23 0 6.46 0 9.7h-.1Z"></path>
    </g>
    <g id="SvgjsG1044" data-name="Boom Mic Image">
        <path d="M77.14 265.96c2.43 0 3.74-.28 5.11 1.75.39.58.83 1.24.97 1.93.16.79-.63 3.16.56 3.53 2.82.86.95-3.75.53-4.41-2.27-3.53 1.01-1.66 3.2-2.71 1.95-.94 1.44-3.76 1.64-5.62.32-3.04 1.1-5.92 1.52-8.91.38-2.68.28-5.25 1.02-7.9.73-2.61 2.04-5.03 2.89-7.63.48-1.48 1.3-5.86 2.74-6.67.91-.51 3.33-.24 4.21.22 1.55.81 1.4 1.68 1.33 3.33-.13 3.07-.6 6.12-.74 9.19-.14 3.19.43 7.12-.59 10.14-.64 1.9-.59 3.57-.94 5.65-.38 2.2.77 3.15.08 5.34-.68 2.17-2.72 3.12.4 3.71 1.99.38 4.73-.12 5.35 2.12.68 2.48-1.22 5.53-1.23 8.12 0 2.89.55 6.05-1.04 8.55-1.2 1.88-3.1 3.77-3.92 5.81-.54 1.33.05 2.8-.38 4.01-.33.93-.82.9-1.56 1.56 1.62 1.51 4.89.9 6.1 2.82 1.31 2.08.36 7.13.38 9.6.02 2.3.9 4.55-1.63 5.21-.73.19-2.95-.2-3.45.34-.73.79.5 3.44.71 4.38 1.41 6.45.12 12.16-1.1 18.51-1.33 6.91-2.67 13.81-3.98 20.72-2.61 13.69-4.7 27.44-6.71 41.23-.96 6.59-2.06 13.17-3.03 19.76-.5 3.35-.72 6.72-1.12 10.08-.33 2.79-.62 7.14-2.72 9.22-3.59 3.56-12.15 1.64-16.19-.04-2.77-1.16-4.45-2.27-4.66-5.4-.22-3.43.29-6.98.56-10.39 1.1-13.92 2.22-27.87 3.59-41.76 1.37-13.86 2.45-27.73 4.04-41.57.69-6.02.47-12.94 2.31-18.72.41-1.29.99-2.53 1.67-3.7.29-.5 1.67-2.05 1.58-2.69-.19-1.39-2.99-.95-3.82-2.08-.65-.88-.21-2.93-.21-3.93 0-1.99-.02-3.98.03-5.98.03-1.24-.11-3.02.69-4.05.95-1.23 2.12-.82 3.43-1.13 4.7-1.13 7-6.96 5.89-11.36-.74-2.95-3.52-4.25-6.41-4.62-1.19-.15-1.66.47-2.42-.7-.46-.71-.04-2.05-.26-2.85-.05-.19-.88-1.1-.88-1.22-.02-.84.63-.64.75-1.3.28-1.43.2-2.89.21-4.37 0-1.03-.46-3.51.37-4.42.93-1.01 3.96-.66 5.12-.74v.04Z"></path>
        <path d="m104.27 295.74-2.79.49c.28-.99.59-1.06 2.79-.49Z"></path>
        <path class="cls-8" d="M104.28 295.55c-.64.04-1.29.04-1.92.14-.26.04-.48.3-.72.46"></path>
    </g>
    <g id="SvgjsG1043" data-name="Left Arm Connector Image">
        <path d="M143.84 192.85v6.18c3.26.3 6.21 1.66 9.54 1.65 3.62-.02 7.24 0 10.86.03v-8.48h-.53c0 2.4-.08 2.47-2.51 2.48h-7.92c-2.04 0-2.27-.24-2.27-2.28v-3.18h-2.47c-.15 1.32.19 5.61-2.23 4.64-.61-.25-.85-.62-.85-1.04h-1.62Z"></path>
        <path d="M143.84 145.75v47.1h1.62c0-1.22 1.92-2.93 2.53-3.74.18.05.37.1.55.14h2.47v-15.66c0-6.44-.01-12.88 0-19.32.01-1.66.32-1.98 1.96-2 2.8-.02 5.6-.01 8.4 0 2.21 0 2.34.14 2.34 2.41v37.55h.53v-44.56c-3.6.01-7.89.65-11.42-.08-1.36-.28-2.35-1.24-3.63-1.64-1.63-.51-3.67-.19-5.35-.2Zm3.31 6.28c-.6-.3-3.29-1.23-1.82-2.14 1.69-1.03 2.09.92 2.22 1.98-.13.05-.27.11-.4.16Zm-1.81 2.19c3.25-1.41 2.75-.18 2.75 3-.09.04-.19.08-.28.13-1-.99-1.71-1.93-2.47-3.13Z"></path>
        <path class="cls-3" d="M145.33 149.89c-1.47.91 1.22 1.84 1.82 2.14.13-.05.27-.11.4-.16-.13-1.06-.53-3.01-2.22-1.98Z"></path>
        <path class="cls-13" d="M145.46 192.85c0 .42.24.79.85 1.04 2.42.97 2.08-3.32 2.23-4.64-.18-.04-.37-.09-.55-.14-.61.81-2.53 2.52-2.53 3.74ZM148.09 157.22c0-3.18.5-4.41-2.75-3 .76 1.2 1.47 2.14 2.47 3.13.09-.05.19-.09.28-.13Z"></path>
        <path class="cls-7" d="M151.01 189.25v3.18c0 2.04.23 2.27 2.27 2.28h7.92c2.43 0 2.51-.08 2.51-2.48v-37.55c0-2.27-.13-2.41-2.34-2.41-2.8-.01-5.6-.02-8.4 0-1.64.02-1.95.34-1.96 2-.01 6.44 0 12.88 0 19.32v15.66Z"></path>
    </g>
    <g id="SvgjsG1042" data-name="Right Arm Image">
        <path d="M432.64 299.59v3.12c-2.67 4.03-9.07 2.6-12.95 4.55-1.51.76-1.33 1.41-1.5 3.03-.26 2.55-1.26 2.38-3.69 2.73-1.65.23-2.05.42-3.55-.46-1.2-.7-1.27-1.1-2.81-1.06-2.84.07-5.79.83-8.61 1.16-5.98.7-11.97 1.23-17.95 1.93-2.31.26-5.9 1.33-8.1.25-1.97-.96-2.22-3.72-2.74-5.64-1.62-5.91-3-11.87-4.62-17.78-.73-2.64-1.14-5.49-2.71-7.81-1.28-1.89-3.15-3.33-4.78-4.91-4.5-4.37-5.76-8.26-6.29-14.39-.52-5.96-1.13-11.92-1.72-17.87-.5-5.01-2.46-11.17 1.21-15.34 3.02-3.44 6.8-6.67 11.1-8.31 5.17-1.96 10.91-2.98 16.23-4.54 2.36-.68 5.92-.95 7.92-2.39 2.01-1.44 1.39-4.23 1.4-6.41 0-2.59.92-5.47-2.31-4.82-2.87.58-5.78 1.9-8.5 2.95-5.56 2.15-11.2 3.97-16.9 5.71-3.1.95-6.19 1.9-9.3 2.83-1.78.53-5.23 2.42-7.04 1.28-1.64-1.02-1.47-4.43-1.52-6.13-.08-2.66.75-5.12.75-7.8-.08-24.91.02-49.82-.01-74.74 0-6.2-.03-12.41-.04-18.62-.02-4.27-1.32-9.48 4.46-9.48 3.56 0 13.03 4.07 14.94.01 1.42-3.03.98-11.51 5.22-12.45 2.17-.48 5.71 2.05 7.55 2.91l7.59 3.57c5.27 2.48 10.52 4.95 15.84 7.33 4.69 2.09 11.27 3.84 14.76 7.81 3.18 3.61 2.92 10.58 3.61 15.11 1.79 11.75 3.65 23.53 5.79 35.23 1.09 5.92 2.13 11.8 2.96 17.77.31 2.25 1.75 6.19 1.04 8.34-.63 1.9-2.83 1.24-4.6 1.24-3.35-.01-6.73-.14-10.08-.03-1.81.06-2.42.13-2.67 1.96-.43 3.13.01 6.61.01 9.76 0 2.03-.78 6.31.07 8.14.8 1.72 3.22 1.47 4.88 2.15 1.81.74 3.94 1.84 5.55 2.96 2.12 1.48 1.8 4.57 2.12 6.96.37 2.78.75 5.57 1.14 8.35 3.42 23.88 5.49 47.95 8.85 71.84Zm-6.49-1.51c.92-2-.23-5.76-.43-7.94-.23-2.68-.2-4.6-2.39-6.31-1.2-.95-2.66-1.68-3.95-2.49-.91-.57-2.91-2.41-3.95-2.47-.79-.04-.66-.75-1.26.13-.57.83-.01 2.95.04 3.9.04-.01.09-.01.13-.01l.42 9.09c.1 2.06-.57 6.74.44 8.61 1.34 2.46 9.93-.28 10.95-2.51Zm-1.35-19.83c.6-4.65-1.43-10.2-2.12-14.85-.76-5.24-1.44-10.49-2.12-15.74-.69-5.3-1.41-10.6-2.32-15.87-.43-2.48-.81-4.93-1.12-7.43-.25-1.97-.14-4.54-1.51-6.02-.69.87-.74 1.24-.74 2.36 1.09 10.54 1.78 21.12 2.76 31.67.51 5.52.78 11.05 1.2 16.58.31 4.09 1.62 8.14 5.97 9.3Zm-4.17-97.55c1.12-1.33-.39-5.23-.65-6.72-.52-2.91-1.05-5.82-1.58-8.74-2.08-11.52-3.76-23.11-5.78-34.65-.52-2.98-1.03-5.98-1.63-8.95-.28-1.43-.39-3.89-1.58-4.87-1.37-1.13-3.01-.21-3.38 1.29-.5 2.06.8 5.79 1.12 7.9 1.54 10.39 2.75 20.85 4.5 31.2.26 1.54 1.74 5.45 1.06 6.87-.45.95-2.1 1.45-2.98.72-1.18-.98-1.04-4.05-1.25-5.41-.33-2.11-.65-4.22-.98-6.32-1.66-10.65-3.13-21.34-4.48-32.03-.22-1.76 0-2.87-1.58-3.7-1.87-.97-4.92-1.03-6.99-1.45-2.52-.51-5.03-1.03-7.55-1.54-1.24-.26-4.32-1.55-5.57-1.11-2.04.74-.66 8.52-.52 10.47.36 5.17 1.31 10.29 1.95 15.42 1.27 10.17 2.9 20.29 4.06 30.47.35 3-.26 10.56 3.33 11.62 2.03.6 4.99.06 7.11.06h7.52c3.01-.01 6.01 0 9.01-.01 1.52 0 5.73.81 6.84-.52Zm-7.35 91.27c.41-.41.91-1 .9-1.51-.09-5.2-.2-10.4-.43-15.59-.29-6.71-.68-13.41-1.03-20.12.08-.01.16-.01.24-.01-.24-4.84-.5-9.67-.72-14.5-.09-2.13-.52-2.43-2.43-1.59-.18.09-.37.15-.57.2-4.44 1.3-8.88 2.61-13.33 3.9-3.41.99-3.42 1-3.34 4.51.06 2.83-1.36 4.72-3.75 6.06-1.2.66-2.39 1.39-3.45 2.26-4.67 3.82-9.29 7.7-13.94 11.55-1.12.93-1.15 1.34-.06 2.22 1.57 1.26 2.33 3 2.43 4.9.79 15.69 1.5 31.39 2.26 47.08.09 1.87.27 3.75.54 5.6.22 1.56.79 1.88 2.31 1.67.91-.13 1.82-.24 2.74-.32 2.69-.24 3.48-1.09 3.45-3.82-.06-5.48-.15-10.96-.22-16.44-.03-2.32-.15-4.64-.04-6.95.1-2.04 1.27-3.28 3.29-3.73 3.78-.83 7.58-1.59 11.38-2.37 4.19-.85 8.37-1.69 12.55-2.55.43-.09.95-.17 1.22-.45Zm-4.56 31.27c-.27-2.81-3.73-1.77-3.46.65.32 2.91 3.44 1.77 3.46-.65Zm-3.25-190.64c2.06-2.01-5.75-4.1-7.36-4.75-3.4-1.4-6.77-2.86-10.16-4.31-3.59-1.53-7.18-3.05-10.77-4.58-1.62-.69-3.41-1.84-5.13-2.2-1.61-.33-1.7.01-2.19 1.51-.34 1.06-1.42 4.22-1.14 5.36.29 1.22 1.38 1.26 2.54 1.54 3.82.92 7.71 1.64 11.55 2.49 7.54 1.68 15.15 3.1 22.66 4.94Zm-18 114.68c2.12-4.54-4.14-1.66-6.19-1.15-7.63 1.92-17.27 3.43-23.39 8.85-2.83 2.5-1.08 7.01-.79 10.33.24 2.75.55 3.2 3.38 3.23 4.32 0 5.1-2 7.91-4.71 3.33-3.21 7.16-6.06 10.75-8.99 2.64-2.16 6.84-4.39 8.33-7.56Zm-4.01-27.9c1.68-.57 4.44-1.01 2.2-2.54-1.96-1.34-5.01-2.04-7.23-2.98-2.26-.95-4.54-1.9-6.68-3.11-3.78-2.14-6.94-5.66-10.95-7.36-2.14-.91-9.7-2.21-11.28-.08-.8 1.08-.17 4.99-.17 6.27v7.41h.01v8.03c0 1.04-.61 5 .45 5.72 1.05.71 4.51-1.27 5.46-1.63 2.29-.86 4.61-1.66 6.93-2.43 4.73-1.58 9.46-3.2 14.17-4.84 2.36-.82 4.72-1.65 7.09-2.46Zm-6.79-82.44c.42-2.17 1.18-3.5-1.1-4.23-2.72-.87-5.9-1.04-8.71-1.52-3.26-.57-6.52-1.12-9.78-1.74-1.65-.31-5.67-2.03-7.17-1.35-1.63.75-.82 5.02-.82 6.46v28.06h.02v22c0 3.41-.15 6.85-.02 10.26.15 3.79 3.41 2.6 6.52 2.59 2 0 7.52.98 8.93-.47 1.23-1.27 1.26-5.59 1.61-7.32 1.16-5.7 2.24-11.41 3.33-17.13 2.27-11.9 4.92-23.72 7.19-35.61Zm-6.88 160.67c.03-3.23 0-6.46 0-9.69h-.1c0-3.24.03-6.47 0-9.7-.03-2.01.14-3.81-1.96-4.66-1.45-.59-7.31-1.09-8.62-.32-1.81 1.06-.57 6.06-.46 7.94.19 3.13-.23 7.11 1.43 9.83 1.62 2.67 4.26 5.1 6.37 7.4 2.11 2.31 3.31 2.65 3.34-.8Z"></path>
        <path class="cls-7" d="M425.72 290.14c.2 2.18 1.35 5.94.43 7.94-1.02 2.23-9.61 4.97-10.95 2.51-1.01-1.87-.34-6.55-.44-8.61l-.42-9.09s-.09 0-.13.01c-.05-.95-.61-3.07-.04-3.9.6-.88.47-.17 1.26-.13 1.04.06 3.04 1.9 3.95 2.47 1.29.81 2.75 1.54 3.95 2.49 2.19 1.71 2.16 3.63 2.39 6.31Z"></path>
        <path class="cls-3" d="M422.68 263.4c.69 4.65 2.72 10.2 2.12 14.85-4.35-1.16-5.66-5.21-5.97-9.3-.42-5.53-.69-11.06-1.2-16.58-.98-10.55-1.67-21.13-2.76-31.67 0-1.12.05-1.49.74-2.36 1.37 1.48 1.26 4.05 1.51 6.02.31 2.5.69 4.95 1.12 7.43.91 5.27 1.63 10.57 2.32 15.87.68 5.25 1.36 10.5 2.12 15.74Z"></path>
        <path class="cls-4" d="M419.98 173.98c.26 1.49 1.77 5.39.65 6.72-1.11 1.33-5.32.52-6.84.52-3 .01-6 0-9.01 0-2.51.01-5.02.01-7.52.01-2.12 0-5.08.54-7.11-.06-3.59-1.06-2.98-8.62-3.33-11.62-1.16-10.18-2.79-20.3-4.06-30.47-.64-5.13-1.59-10.25-1.95-15.42-.14-1.95-1.52-9.73.52-10.47 1.25-.44 4.33.85 5.57 1.11 2.52.51 5.03 1.03 7.55 1.54 2.07.42 5.12.48 6.99 1.45 1.58.83 1.36 1.94 1.58 3.7 1.35 10.69 2.82 21.38 4.48 32.03.33 2.1.65 4.21.98 6.32.21 1.36.07 4.43 1.25 5.41.88.73 2.53.23 2.98-.72.68-1.42-.8-5.33-1.06-6.87-1.75-10.35-2.96-20.81-4.5-31.2-.32-2.11-1.62-5.84-1.12-7.9.37-1.5 2.01-2.42 3.38-1.29 1.19.98 1.3 3.44 1.58 4.87.6 2.97 1.11 5.97 1.63 8.95 2.02 11.54 3.7 23.13 5.78 34.65.53 2.92 1.06 5.83 1.58 8.74ZM414.18 270.46c.01.51-.49 1.1-.9 1.51-.27.28-.79.36-1.22.45-4.18.86-8.36 1.7-12.55 2.55-3.8.78-7.6 1.54-11.38 2.37-2.02.45-3.19 1.69-3.29 3.73-.11 2.31.01 4.63.04 6.95.07 5.48.16 10.96.22 16.44.03 2.73-.76 3.58-3.45 3.82-.92.08-1.83.19-2.74.32-1.52.21-2.09-.11-2.31-1.67-.27-1.85-.45-3.73-.54-5.6-.76-15.69-1.47-31.39-2.26-47.08-.1-1.9-.86-3.64-2.43-4.9-1.09-.88-1.06-1.29.06-2.22 4.65-3.85 9.27-7.73 13.94-11.55 1.06-.87 2.25-1.6 3.45-2.26 2.39-1.34 3.81-3.23 3.75-6.06-.08-3.51-.07-3.52 3.34-4.51 4.45-1.29 8.89-2.6 13.33-3.9.2-.05.39-.11.57-.2 1.91-.84 2.34-.54 2.43 1.59.22 4.83.48 9.66.72 14.5-.08 0-.16 0-.24.01.35 6.71.74 13.41 1.03 20.12.23 5.19.34 10.39.43 15.59Z"></path>
        <path class="cls-6" d="M405.26 303.89c-.27-2.42 3.19-3.46 3.46-.65-.02 2.42-3.14 3.56-3.46.65Z"></path>
        <path class="cls-13" d="M398.11 107.85c1.61.65 9.42 2.74 7.36 4.75-7.51-1.84-15.12-3.26-22.66-4.94-3.84-.85-7.73-1.57-11.55-2.49-1.16-.28-2.25-.32-2.54-1.54-.28-1.14.8-4.3 1.14-5.36.49-1.5.58-1.84 2.19-1.51 1.72.36 3.51 1.51 5.13 2.2 3.59 1.53 7.18 3.05 10.77 4.58 3.39 1.45 6.76 2.91 10.16 4.31ZM381.28 226.13c2.05-.51 8.31-3.39 6.19 1.15-1.49 3.17-5.69 5.4-8.33 7.56-3.59 2.93-7.42 5.78-10.75 8.99-2.81 2.71-3.59 4.71-7.91 4.71-2.83-.03-3.14-.48-3.38-3.23-.29-3.32-2.04-7.83.79-10.33 6.12-5.42 15.76-6.93 23.39-8.85Z"></path>
        <path class="cls-4" d="M385.66 196.84c2.24 1.53-.52 1.97-2.2 2.54-2.37.81-4.73 1.64-7.09 2.46-4.71 1.64-9.44 3.26-14.17 4.84-2.32.77-4.64 1.57-6.93 2.43-.95.36-4.41 2.34-5.46 1.63-1.06-.72-.45-4.68-.45-5.72v-8.03h-.01v-7.41c0-1.28-.63-5.19.17-6.27 1.58-2.13 9.14-.83 11.28.08 4.01 1.7 7.17 5.22 10.95 7.36 2.14 1.21 4.42 2.16 6.68 3.11 2.22.94 5.27 1.64 7.23 2.98Z"></path>
        <path class="cls-13" d="M375.57 112.71c2.28.73 1.52 2.06 1.1 4.23-2.27 11.89-4.92 23.71-7.19 35.61-1.09 5.72-2.17 11.43-3.33 17.13-.35 1.73-.38 6.05-1.61 7.32-1.41 1.45-6.93.47-8.93.47-3.11.01-6.37 1.2-6.52-2.59-.13-3.41.02-6.85.02-10.26v-22h-.02v-28.06c0-1.44-.81-5.71.82-6.46 1.5-.68 5.52 1.04 7.17 1.35 3.26.62 6.52 1.17 9.78 1.74 2.81.48 5.99.65 8.71 1.52Z"></path>
        <path class="cls-7" d="M369.79 267.92c0 3.23.03 6.46 0 9.69-.03 3.45-1.23 3.11-3.34.8-2.11-2.3-4.75-4.73-6.37-7.4-1.66-2.72-1.24-6.7-1.43-9.83-.11-1.88-1.35-6.88.46-7.94 1.31-.77 7.17-.27 8.62.32 2.1.85 1.93 2.65 1.96 4.66.03 3.23 0 6.46 0 9.7h.1Z"></path>
    </g>
    <g id="SvgjsG1041" data-name="Right Arm Connector Image">
        <path d="M344.24 192.85v6.18c-3.26.3-6.21 1.66-9.54 1.65-3.62-.02-7.24 0-10.86.03v-8.48h.53c0 2.4.08 2.47 2.51 2.48h7.92c2.04 0 2.27-.24 2.27-2.28v-3.18h2.47c.15 1.32-.19 5.61 2.23 4.64.61-.25.85-.62.85-1.04h1.62Z"></path>
        <path d="M344.24 145.75v47.1h-1.62c0-1.22-1.92-2.93-2.53-3.74-.18.05-.37.1-.55.14h-2.47v-15.66c0-6.44.01-12.88 0-19.32-.01-1.66-.32-1.98-1.96-2-2.8-.02-5.6-.01-8.4 0-2.21 0-2.34.14-2.34 2.41v37.55h-.53v-44.56c3.6.01 7.89.65 11.42-.08 1.36-.28 2.35-1.24 3.63-1.64 1.63-.51 3.67-.19 5.35-.2Zm-3.31 6.28c.6-.3 3.29-1.23 1.82-2.14-1.69-1.03-2.09.92-2.22 1.98.13.05.27.11.4.16Zm1.81 2.19c-3.25-1.41-2.75-.18-2.75 3 .09.04.19.08.28.13 1-.99 1.71-1.93 2.47-3.13Z"></path>
        <path class="cls-3" d="M342.75 149.89c1.47.91-1.22 1.84-1.82 2.14-.13-.05-.27-.11-.4-.16.13-1.06.53-3.01 2.22-1.98Z"></path>
        <path class="cls-13" d="M342.62 192.85c0 .42-.24.79-.85 1.04-2.42.97-2.08-3.32-2.23-4.64.18-.04.37-.09.55-.14.61.81 2.53 2.52 2.53 3.74ZM339.99 157.22c0-3.18-.5-4.41 2.75-3-.76 1.2-1.47 2.14-2.47 3.13-.09-.05-.19-.09-.28-.13Z"></path>
        <path class="cls-7" d="M337.07 189.25v3.18c0 2.04-.23 2.27-2.27 2.28h-7.92c-2.43 0-2.51-.08-2.51-2.48v-37.55c0-2.27.13-2.41 2.34-2.41 2.8-.01 5.6-.02 8.4 0 1.64.02 1.95.34 1.96 2 .01 6.44 0 12.88 0 19.32v15.66Z"></path>
    </g>
    <g id="SvgjsG1040">
        <path d="M253.74 107.86h-19.28l-4.19 6.75.63 1.97h-2.2l-4.32 6.8 2.66 5.58-4 6.41 4 7.01-4.52 7.14 3.98 6.63h-2.12l-4.06 6.97 4.06 7.15h2.66l-2.13 4.18 4 7.85h37.62l3.98-5.42v-1.91l-2.31-4 5.14-7.85-4.09-7.32-3.18-.17 3.39-5.25-.32-1.55-3.31-6.1 3.73-6.45-.31-.91-4.17-6.76 2.25-4.71-4.2-7.32-4.88-.18-4.51-8.54z"></path>
        <path class="cls-3" d="m226.77 176.88-1.06 1.77s38.54 2.87 40.08 2.21c1.54-.66-41.54-.66-39.02-3.97Z" id="SvgjsPath1039" data-name="Shape 8"></path>
        <path class="cls-3" d="M227.04 172.46s34.83 1.1 36.1.88l-36.1-.88Z" id="SvgjsPath1038" data-name="Shape 7"></path>
        <path class="cls-3" d="m223.85 160.98-2.92 6.18s34.69 2.87 45.12.44-46.85 4.42-42.2-6.62Z" id="SvgjsPath1037" data-name="Shape 6"></path>
        <path class="cls-3" d="M227.04 159.21s30.45 1.99 33.44 1.32l-33.44-1.32Z" id="SvgjsPath1036" data-name="Shape 5"></path>
        <path class="cls-3" d="M238.43 116.2c-1.43-.14-.51.27 1.29.88-.05-.44-.42-.79-1.29-.88Zm1.29.88c.2 1.78-5.04 4.98-5.25-2.47 0 0-4.06 4.42-1.59 4.86 2.47.44 13.59-.22 16.19.44 1.75.44-5.65-1.59-9.35-2.83Z" id="SvgjsPath1035" data-name="Shape 1"></path>
        <path class="cls-3" d="m251.72 127.42-13.01.44s-13.01 1.1-10.09-5.74l-2.12 5.3 3.72 1.32c1.86-.22 6.56.88 8.76.88s19.91-.44 19.91-.44l5.31-.88-12.48-.88Z" id="SvgjsPath1034" data-name="Shape 2"></path>
        <path class="cls-3" d="m227.57 135.37-2.65 4.42s34.96 2.21 39.82.88c4.86-1.32-41.67 1.55-37.16-5.3Z" id="SvgjsPath1033" data-name="Shape 3"></path>
        <path class="cls-3" d="m227.3 146.85-2.92 6.18s38.29-.6 41.47.67c-3.49-2.6-43.21 2.41-38.55-6.85Zm38.55 6.85c.09.07.16.14.2.22.04-.08-.03-.15-.2-.22Z" id="SvgjsPath1032" data-name="Shape 4"></path>
    </g>
    <g id="SvgjsG1031" data-name="M Body Image">
        <path class="cls-5" d="M181.06 189.52c2.31 2.97 1.89 5.46 1.9 9.18v11.36c-3-2.4-5.95-4.85-8.91-7.29-2.39-1.97-7-4.41-7.43-7.59-.53-3.92.02-8.32.04-12.27.02-3.71-.29-7.6.18-11.28 5.09 5.62 9.55 11.91 14.22 17.89Z"></path>
        <path d="M320.22 164.47v-18.86c-.12-.03-.24-.05-.36-.08-1.34 6.55 1.77 14.36-.72 20.67-1.19 3.01-3.87 5.54-5.86 8.03-2.49 3.11-4.98 6.23-7.46 9.35-1.74 2.19-3.93 6.38-6.37 7.76-2.55 1.45-7.49.53-10.32.51-7.49-.04-14.98-.08-22.47-.13-14.77-.09-29.53-.17-44.3-.29-7.5-.05-15-.12-22.5-.17-2.82-.02-7.38.8-10.06-.16-2.73-.97-5.33-5.87-7.13-8.08-4.72-5.78-10.26-11.34-14.43-17.5-2.08-3.07-1.34-6.77-1.31-10.35.03-4.11-.34-8.48.22-12.55 7 0 14 .17 20.99.19 2.95 0 7.23-.83 9.98.35 2.85 1.23 4.9 5.15 6.79 7.48 4.72 5.82 9.31 11.75 14.04 17.56 2.27 2.8 4.6 5.56 6.81 8.42.76.98 1.52 2.5 2.51 3.25 1.5 1.13 3.71.68 5.48.67 7.5-.04 15-.09 22.51-.15 3.25-.02 6.62.23 9.86.05 3.27-.2 4.9-5 6.49-7.53 3.98-6.37 7.95-12.75 11.91-19.14 1.81-2.92 3.41-6.36 5.58-9.02 2.13-2.6 5.2-1.89 8.33-1.92 4.26-.04 8.52-.09 12.78-.15 2.4-.03 8.86-1.22 10.67.76.95 1.04.61 3.18.66 4.46l.27 6.32c.08 1.81.55 4.15.12 5.92-.38 1.55-1.61 3.07-2.41 4.42l-.3-.09Z" style="fill:#c69"></path>
        <path class="cls-5" d="M320.45 180.61v-8.18c.16.01.32.01.49.01.41 1.5-.66 7.99.93 7.79l.36-9.5c.15.01.3.01.45.02 0 4-.08 8-.13 12l-.09 6.71c-.03 1.69.35 4.13-.15 5.72-.87 2.73-5.25 5.45-7.35 7.38-2.43 2.24-5.03 5.49-8.02 6.88-1.23-2.66-.57-6.41-.57-9.31s-.74-7.06.77-9.67c3.38-5.83 8.09-10.95 11.69-16.66 1.51 1.84-.15 5.77 1.62 6.81Z"></path>
        <path class="cls-13" d="M190.8 223.62c.35 5.48.47 9.44.3 8.53-.33-1.74-.26-4.45-.3-8.53ZM201.85 197.19c-3.21.33-6.3.81-9.06 1.46-4.29 1.01-3.15 5.05-2.71 9.88.57 6.37.69 11.28.72 15.03-.25-3.83-.62-8.39-1.08-12.54-.27-2.4-1.05-10.81.3-12.06 1.07-.99 5.82-1.52 11.83-1.77Z"></path>
        <path class="cls-5" d="M242.62 257.52v9.88c-13.25-7.23-26.37-14.38-39.51-21.55.14-.55.25-.96.38-1.46 12.96.17 25.9.34 39.13.51v12.62Z"></path>
        <path d="M242.62 249.31v-4.41c-13.23-.17-26.17-.34-39.13-.51-.13.5-.24.91-.38 1.46 13.14 7.17 26.26 14.32 39.51 21.55v-9.88h2.89c0 3.35.04 6.68.41 10.01 8.43-4.15 16.55-9.07 24.77-13.62 4.2-2.32 8.76-4.38 12.74-7.05 4.44-2.98-4.58-2.16-6.23-2.16-9.49 0-18.98-.02-28.46 0-2 .01-2.81-.13-3.17 2.02-.14.83-.19 1.7-.19 2.58h-2.76Zm77.83-76.88v8.18c-1.77-1.04-.11-4.97-1.62-6.81-3.6 5.71-8.31 10.83-11.69 16.66-1.51 2.61-.77 6.69-.77 9.67s-.66 6.65.57 9.31c2.99-1.39 5.59-4.64 8.02-6.88 2.1-1.93 6.48-4.65 7.35-7.38.5-1.59.12-4.03.15-5.72l.09-6.71c.05-4 .13-8 .13-12-.15-.01-.3-.01-.45-.02l-.36 9.5c-1.59.2-.52-6.29-.93-7.79-.17 0-.33 0-.49-.01Zm-.23-26.82v18.86l.3.09c.8-1.35 2.03-2.87 2.41-4.42.43-1.77-.04-4.11-.12-5.92l-.27-6.32c-.05-1.28.29-3.42-.66-4.46-1.81-1.98-8.27-.79-10.67-.76-4.26.06-8.52.11-12.78.15-3.13.03-6.2-.68-8.33 1.92-2.17 2.66-3.77 6.1-5.58 9.02-3.96 6.39-7.93 12.77-11.91 19.14-1.59 2.53-3.22 7.33-6.49 7.53-3.24.18-6.61-.07-9.86-.05-7.51.06-15.01.11-22.51.15-1.77 0-3.98.46-5.48-.67-.99-.75-1.75-2.27-2.51-3.25-2.21-2.86-4.54-5.62-6.81-8.42-4.73-5.81-9.32-11.74-14.04-17.56-1.89-2.33-3.94-6.25-6.79-7.48-2.75-1.18-7.03-.35-9.98-.35-6.99-.02-13.99-.19-20.99-.19-.56 4.07-.19 8.44-.22 12.55-.03 3.58-.77 7.28 1.31 10.35 4.17 6.16 9.71 11.72 14.43 17.5 1.8 2.21 4.4 7.11 7.13 8.08 2.68.96 7.24.14 10.06.16 7.5.05 15 .12 22.5.17 14.77.12 29.53.2 44.3.29 7.49.05 14.98.09 22.47.13 2.83.02 7.77.94 10.32-.51 2.44-1.38 4.63-5.57 6.37-7.76 2.48-3.12 4.97-6.24 7.46-9.35 1.99-2.49 4.67-5.02 5.86-8.03 2.49-6.31-.62-14.12.72-20.67.12.03.24.05.36.08Zm6.36-3.83c1.05 1.3 1.37 2.7 1.35 4.33-.22 16.99-.44 33.97-.56 50.95-.14 20.75-.12 41.51-.31 62.26-.04 4.49.71 9.09-1.22 13.47-.72 1.62-1.62 2.65-3.5 2.66-2.52 0-5.04-.03-7.56-.04l-29.87-.12c-2.56-.01-4.68-2.15-4.75-4.71-.14-5.15-.3-10.31-.46-15.46-.01-.22-.06-.43-.12-.77-.55.25-.99.43-1.41.64-11.34 5.62-22.68 11.26-34.03 16.85-.41.2-1.11.17-1.51-.05-8.34-4.55-16.66-9.14-24.99-13.73-3.1-1.71-6.2-3.41-9.37-5.16 0 1.27-.02 2.42 0 3.56.1 5.12.21 10.24.3 15.35.04 2.23-.8 3.08-2.95 3.08-13.56-.03-27.11-.07-40.67-.1-2.76-.01-3.95-.88-4.79-3.52v-4.8c.05-.43.14-.86.14-1.29.09-20.96.17-41.91.26-62.87.07-18.96.17-37.91.18-56.87.01-2.85.07-5.57 2.06-7.85h35.28c.62.26 1.22.69 1.85.74.75.06 1.23.28 1.7.86 9.57 11.9 19.16 23.77 28.71 35.68.78.98 1.51 1.39 2.84 1.38 10.07-.08 20.14-.05 30.22-.04.75 0 1.31-.08 1.79-.84 3.81-6.14 7.68-12.25 11.54-18.36 4.1-6.48 8.21-12.95 12.31-19.42h1.44c2.8.64 6.04.27 8.88 0h23.76c1.72.93 2.33 2.77 3.46 4.19Zm-3.77 79.02c1.17-1.73.13-6.39.08-8.43-.06-2.88-.06-5.76-.22-8.64-4.53 3.1-8.76 6.65-13.03 10.1-2.51 2.03-2.48 3.22-2.33 6.46.13 2.8.22 5.59.29 8.39.09 4.09 1.41 11.49-1.49 14.93-1.59 1.89-3.71 1.45-5.97 1.65-2.6.23-4.55 1.39-6.87 2.57-1.88.95-5.76 2.01-7.07 3.68-1.22 1.56-.34 6.11-.33 8.06.03 3.02.03 6.02-.08 9.02-.09 2.48.3 2.78 3.13 2.89 11.16.43 22.33-.43 33.48-.68 0-5.77-.7-11.53-.88-17.32-.18-6.02-.36-12.03-.51-18.05-.08-3.03-.13-6.06-.11-9.09 0-1.28-.4-3.39.32-4.49.38-.58 1.2-.48 1.59-1.05Zm-20.55 20.4v-45H187.62v45h114.64ZM204 252.15c.02-.82-.22-1.21-.97-1.52-3.65-1.51-7.31-3.01-10.9-4.66-1.79-.82-3.61-1.21-5.53-1.32-1.77-.11-3.35-1.83-3.35-3.62 0-7.76.01-15.52-.02-23.28 0-.49-.15-1.19-.49-1.45-5.25-4.03-10.55-8-16.16-12.23v2.26c.03 15.32.05 30.64.08 45.96.01 5.04.02 10.08.04 15.12.01 1.53.95 2.59 2.34 2.65 10.86.48 21.73.95 32.6 1.42 1.45.06 1.97-.42 2-1.82.11-5.84.21-11.68.36-17.51Zm-21.04-53.45c-.01-3.72.41-6.21-1.9-9.18-4.67-5.98-9.13-12.27-14.22-17.89-.47 3.68-.16 7.57-.18 11.28-.02 3.95-.57 8.35-.04 12.27.43 3.18 5.04 5.62 7.43 7.59 2.96 2.44 5.91 4.89 8.91 7.29V198.7Z"></path>
        <path class="cls-1" d="M189.72 211.02c.46 4.15.83 8.71 1.08 12.54-.03-3.75-.15-8.66-.72-15.03-.44-4.83-1.58-8.87 2.71-9.88 2.76-.65 5.85-1.13 9.06-1.46 13.2-.59 32.46.08 32.06-.12-.41-.21-17.49-1.43-32.06.12-6.01.25-10.76.78-11.83 1.77-1.35 1.25-.57 9.66-.3 12.06Zm1.08 12.6c.04 4.08-.03 6.79.3 8.53.17.91.05-3.05-.3-8.53Zm-3.18 17.58v-45h114.64v45H187.62Z"></path>
        <path class="cls-9" d="M322.89 212.37c.05 2.04 1.09 6.7-.08 8.43-.39.57-1.21.47-1.59 1.05-.72 1.1-.32 3.21-.32 4.49-.02 3.03.03 6.06.11 9.09.15 6.02.33 12.03.51 18.05.18 5.79.88 11.55.88 17.32-11.15.25-22.32 1.11-33.48.68-2.83-.11-3.22-.41-3.13-2.89.11-3 .11-6 .08-9.02-.01-1.95-.89-6.5.33-8.06 1.31-1.67 5.19-2.73 7.07-3.68 2.32-1.18 4.27-2.34 6.87-2.57 2.26-.2 4.38.24 5.97-1.65 2.9-3.44 1.58-10.84 1.49-14.93-.07-2.8-.16-5.59-.29-8.39-.15-3.24-.18-4.43 2.33-6.46 4.27-3.45 8.5-7 13.03-10.1.16 2.88.16 5.76.22 8.64Z"></path>
        <path class="cls-13" d="M233.91 197.07c.4.2-18.86-.47-32.06.12 14.57-1.55 31.65-.33 32.06-.12Z"></path>
        <path class="cls-9" d="M203.03 250.63c.75.31.99.7.97 1.52-.15 5.83-.25 11.67-.36 17.51-.03 1.4-.55 1.88-2 1.82-10.87-.47-21.74-.94-32.6-1.42-1.39-.06-2.33-1.12-2.34-2.65-.02-5.04-.03-10.08-.04-15.12-.03-15.32-.05-30.64-.08-45.96v-2.26c5.61 4.23 10.91 8.2 16.16 12.23.34.26.49.96.49 1.45.03 7.76.02 15.52.02 23.28 0 1.79 1.58 3.51 3.35 3.62 1.92.11 3.74.5 5.53 1.32 3.59 1.65 7.25 3.15 10.9 4.66Z"></path>
        <path d="M242.62 257.52v-8.21h2.76c0 1.48.13 2.99.13 4.4v3.81h-2.89Z"></path>
        <path class="cls-5" d="M277.2 244.7c1.65 0 10.67-.82 6.23 2.16-3.98 2.67-8.54 4.73-12.74 7.05-8.22 4.55-16.34 9.47-24.77 13.62-.37-3.33-.41-6.66-.41-10.01v-3.81c0-1.41-.13-2.92-.13-4.4 0-.88.05-1.75.19-2.58.36-2.15 1.17-2.01 3.17-2.02 9.48-.03 18.97 0 28.46 0Z"></path>
        <path class="cls-8" d="M320.12 145.39c-.04.68-.11 1.36-.11 2.04 0 5.64 0 11.28-.01 16.92 0 .16-.07.32-.11.48M321.8 173.47l-.12 1.56M321.56 176.35l-.24 3.36M319.76 174.43c.08 1.68.14 3.36.25 5.04.02.33.23.64.35.96"></path>
        <path class="cls-13" d="M298.93 233.29c.09 1.49-.04 3.47-1.33 4.74-2.07 2.04-6.06 1.23-6.06 1.33 0 .06 1.4.2 7.58.57"></path>
    </g>
    <g id="SvgjsG1030" data-name="Head Image">
        <path d="M292.65 93.17c-.3-2.42-1.4-3.92-2.55-5.93-1.64-2.88-3.81-5.21-2.78-8.21 1.12-3.31-.28-4.13-.97-7.15-.69-3.03-1.93-5.77-1.66-8.74.31-3.29-.63-5.24-3.02-7.17-2.37-1.89-7.69-5.97-10.07-7.84-4.73-3.73-5.05-3.16-10.33-6.11-2.97-1.65-5.93-3.29-8.94-4.87-2.4-1.25-6.32-.24-8.15-2.26-.48 0-8.36 2.97-8.84 2.97-5.22 5.27-5.46 2.63-12 5.99-6.42 3.29-6.75 8.31-13.15 11.56-1.49-4.6.95-10.09-.52-14.62-.5-1.57-1.14-2.02-2.91-1.72-2.96.48-2.17 3.19-2.17 5.68.03 5.76.04 11.51 0 17.27-.02 2.79.57 6.5-.1 9.21-.64 2.55-1.99 3.67-1.14 6.5.67 2.24-2.97 5.22-3.82 7.59-.74 2.04-2.67 3.05-3.5 5-.79 1.88-.46 4.15-.45 6.13.04 3.72.05 7.45.04 11.18-.01 2.86-.58 6.26-.01 9.06.49 2.51 2.25 3.77 4.08 5.41 4.53 4.11 9.06 8.24 13.6 12.35 3.8 3.44 7.19 7.28 12.01 9.25 5.51 2.27 12.13 5.3 18.04 6.16 4.79.69 10.08-2.18 14.39-3.92 4.88-1.95 11.22-4.38 15.14-7.93 3.76-3.42 7.11-7.37 10.68-10.98 2.13-2.14 4.32-4.23 6.42-6.41 2.67-2.75 2.76-4.6 2.75-8.39-.02-6.21.71-12.9-.07-19.06Zm-92.32 24.52c-3.72-1.73-2.08-9.74-2.09-13.25-.01-3.81-1.59-10.34 1.66-12.88 2.05 3.38.94 9.31.94 13.23h.04c0 3.91.94 9.26-.55 12.9Zm9.71-53c1.61-2.46 2.93-6 5.91-6.53.33 3.13-3.2 6.59-5.01 8.98-2.75 3.64-.31 1.47-.9-2.45Zm3.45 10.8c-.89 1.07-.72 1.53-1.98 1.95-.83.28-1.13 0-1.42-.15-.1-.06-.19-.12-.3-.18 2.26-4.67 3.22-9.98 7.9-12.54.98 4.01-1.74 7.94-4.2 10.92Zm64.72 2.82c-1.94-.95-3.18-2.05-4.03-3.56-1.48-2.65-2.53-5.88-2.15-8.91 2.33 3.32 7.55 6.11 9.1 10.72-.89 1.57-1.41 2.49-2.92 1.75Zm1.83-10.91c-1.02.27-3.09-1.53-3.54-2.13-2.05-2.67-5.92-5.6-4.65-9.17 2.49 1.42 9.38 5.51 9.28 8.88-.08.77.01 2.14-1.09 2.42Zm8.9 49.64c-1.56-3.47-.69-8.42-.69-12.21h.02c0-3.95-.71-8.49.67-12.21 2 3.61 1.1 8.69 1.09 12.77-.01 3.6.98 8.62-1.09 11.65Z"></path>
        <path class="cls-4" d="M282.48 102.26c.11 5 .75 10.64-.2 15.41-.89 4.44-5.49 8.15-8.39 11.32-3.81 4.19-7.37 7.65-12.57 9.94-4.63 2.07-9.67 4.5-14.71 5.36-5.31.9-10.9-1.66-15.83-3.41-4.89-1.73-9.08-4.43-12.63-8.25-3.3-3.54-8.07-7.39-10.52-11.57-1.3-2.24-.84-5.03-.84-7.51v-8.96h-.18c0-4.59-.89-10.16.23-14.63 1.14-4.48 8.14-9.57 10.91-13.15 3.42-4.43 3.75-7.2 3.95-12.73.16-3.85-3.05-9.91.36-12.56 3.54-2.73 9.14-4.25 13.2-6.15 1.14-.53 5.73-3.53 6.81-3.12 1.63.61 1.07 2.93 1.07 4.66v15.25c0 1.08.23 2.73.26 4.23l2.79-.06c-.06-1.58.22-3.34.22-4.95 0-2.66.01-5.33.02-7.99 0-2.34-.89-7.24-.05-9.43.74-1.94 1.15-1.42 3.23-.53 2.13.9 4.21 1.91 6.32 2.87 3.57 1.63 9.08 3.03 11.64 6.28 2.27 2.89 1.29 6.39 1.05 9.74-.34 4.61.43 8.96 2.79 12.95 2.41 4.09 3.7 6.37 6.7 9.91 3.33 3.91 4.34 10.93 4.34 15.77 0 .42 0 .85.01 1.29Z"></path>
        <path class="cls-13" d="M288.94 92.62c2 3.61 1.1 8.69 1.09 12.77-.01 3.6.98 8.62-1.09 11.64-1.56-3.47-.69-8.42-.69-12.21h.02c0-3.95-.71-8.49.67-12.21Z"></path>
        <path class="cls-7" d="M271.85 56.1c2.49 1.42 9.38 5.51 9.29 8.89-.08.77 0 2.13-1.09 2.42-1.02.26-3.08-1.54-3.54-2.14-2.05-2.66-5.92-5.59-4.65-9.17Z"></path>
        <path class="cls-13" d="M281.13 76.56c-.9 1.58-1.53 2.69-2.93 1.75-1.52-1.01-3.41-2.42-4.03-3.56-1.43-2.67-2.53-5.88-2.15-8.91 2.27 3.04 7.55 6.11 9.1 10.72Z"></path>
        <path d="M279.13 103.84c.1 8.56-2.73 16.81-8.31 23.31a29.359 29.359 0 0 1-10.9 7.97c-3.15 1.32-6.63 3.35-9.87 4.32-9.39 2.82-17.69-1.34-25.06-6.62-7.38-5.29-12.35-12.15-13.56-21.38-2.51-19.17 13.83-37.43 27.42-40.38 1.72-.39 3.47-.16 4.24-1.93.3-.67.36-1.67.32-2.72l2.79-.06c.06 2.02.65 3.76 3 4.42 4.37 1.23 8.56 1.79 12.6 4.06 3.49 1.95 6.64 4.7 9.29 7.71 4.88 5.57 7.6 12.49 7.99 19.83.02.49.05.99.05 1.48Zm-8.76 14.65c-.13-.06-.26-.13-.39-.19-3.97 4.91-7.14 9.28-13.02 12.11-6.02 2.89-12.92 3.42-19.34 1.65-11.8-3.25-19.51-15.22-19.35-27.31.16-12.49 10.03-22.51 21.78-24.95 5.96-1.23 11.99-.37 17.16 2.91 5.46 3.47 7.93 8.87 12.25 13.32l.43-.25c-3.34-12.76-17.03-20.01-29.55-18.01-13.76 2.19-22.92 14.07-23.05 27.74-.13 13.53 7.98 24.87 21.05 28.43 12.43 3.37 26.9-3.26 32.02-15.45Zm-2-4.49c1.45-1.35 2.5-4.88 1.69-6.28-.75 2.14-1.46 4.13-2.17 6.12.17.05.32.11.48.17Zm-1.95-3.66c1.96-1.72 2.53-8.86.92-10.7-.31 3.61-.62 7.13-.92 10.7Zm.03-13.79c.08-.01.17-.04.25-.05-1.54-5.04-7.6-13.18-13.46-13.18 2.5 1.85 5.21 3.46 7.43 5.67 2.25 2.24 3.88 5.03 5.78 7.56Zm-3.63 19.38c-.12-.11-.23-.22-.35-.33-7.81 7.33-16.1 11.91-26.47 6.43a21.787 21.787 0 0 1-9.63-10.15 19.292 19.292 0 0 1-1.75-7.24c-.07-2.24.92-4.33-.66-6.09-2.51 3.88-.3 11.04 1.62 14.82 2.3 4.58 5.89 8.37 10.54 10.56 8.19 3.85 23.18 1.83 26.7-8.01Zm-4.55 7.98c-3.46 1.66-6.7 3.77-10.78 3.91 1.96 1.16 10.59-1.26 10.78-3.91Zm-6.56-20.68c1.56-8.78-12.09-9.98-12.17-1.01-.24 7.39 10.89 8.21 12.17 1.01Zm-4.11-21.46h-4.01c1.28 1.02 3.31.94 4.01 0Zm-5.07.68c-5.23-1.94-15.55 6.19-15.38 10.63 4.04-5.51 8.9-9.28 15.38-10.63Zm-9.66 42.24c1.23 1.63 3.41 2.59 4.93 2.24-1.65-.75-3.12-1.42-4.93-2.24ZM241.84 64.65c-4.18.75-6.15 1.19-8.74 2.15-1.3.49-4.89 1.87-7.71 3.62-1.94 1.21-4.67 4.59-5.77 5.28 7.2-7.23 12.02-8.27 22.22-11.05ZM247.09 64.65c4.18.75 6.13 1.11 9.1 1.9 1.27.34 4.58 2.02 7.71 3.62 1.66.85 5.11 3.18 6.21 3.87-10.1-5.08-12.82-6.61-23.02-9.39Z"></path>
        <path class="cls-7" d="M269.97 118.3c.13.06.26.13.39.19-5.12 12.18-19.59 18.82-32.02 15.45-13.07-3.55-21.18-14.89-21.05-28.43.13-13.67 9.29-25.55 23.05-27.74 12.52-2 26.21 5.25 29.55 18.01l-.43.25c-4.32-4.44-6.8-9.85-12.25-13.32-5.17-3.29-11.2-4.14-17.16-2.91-11.75 2.43-21.62 12.46-21.78 24.95-.16 12.09 7.55 24.06 19.35 27.31 6.41 1.77 13.32 1.24 19.34-1.65 5.88-2.83 9.05-7.2 13.02-12.11Z"></path>
        <path class="cls-13" d="M270.06 107.72c.81 1.41-.24 4.94-1.69 6.28-.16-.06-.31-.12-.48-.17.71-1.99 1.41-3.97 2.17-6.12Z"></path>
        <path class="cls-6" d="M267.34 99.64c1.6 1.84 1.04 8.98-.92 10.7.3-3.58.61-7.09.92-10.7ZM266.7 96.5c-.08.01-.17.04-.25.05-1.9-2.53-3.53-5.32-5.78-7.56-2.23-2.22-4.93-3.82-7.43-5.67 5.86 0 11.92 8.14 13.46 13.18ZM262.47 115.6c.12.11.23.22.35.33-3.52 9.84-18.51 11.86-26.7 8.01-4.66-2.19-8.25-5.98-10.54-10.56-1.91-3.78-4.13-10.94-1.62-14.82 1.58 1.76.59 3.85.66 6.09.1 2.5.71 4.96 1.75 7.24 2.02 4.37 5.4 7.91 9.63 10.15 10.38 5.48 18.66.9 26.47-6.43Z"></path>
        <path class="cls-6" d="M247.49 127.83c4.08-.14 7.32-2.25 10.78-3.91-.19 2.65-8.82 5.07-10.78 3.91ZM239.54 102.22c.08-8.97 13.73-7.77 12.17 1.01-1.28 7.2-12.41 6.38-12.17-1.01Z"></path>
        <path class="cls-3" d="M243.6 81.77h4.01c-.69.94-2.73 1.02-4.01 0Z"></path>
        <path class="cls-6" d="M227.15 93.08c-.17-4.44 10.15-12.57 15.38-10.63-6.47 1.35-11.33 5.12-15.38 10.63Z"></path>
        <path class="cls-3" d="M237.8 126.93c-1.52.35-3.7-.61-4.93-2.24 1.81.82 3.28 1.49 4.93 2.24ZM217.69 64.57c.98 4.01-1.56 8.11-4.2 10.92-1.01 1.08-.85 1.38-1.98 1.96-1.01.52-1.14.12-1.43-.15-.1-.06-.19-.12-.3-.18 2.26-4.67 3.23-9.98 7.91-12.55Z"></path>
        <path class="cls-13" d="M215.95 58.16c.34 3.13-3.2 6.59-5 8.98-2.75 3.64-.32 1.47-.9-2.45 1.62-2.46 2.93-6 5.91-6.53Z"></path>
        <path class="cls-3" d="M200.88 104.79c0 3.91.93 9.26-.55 12.89-3.72-1.72-2.08-9.74-2.09-13.24-.01-3.82-1.59-10.34 1.66-12.88 2.05 3.38.93 9.31.93 13.23h.05Z"></path>
    </g>
</svg><style>@media (prefers-color-scheme: light) { :root { filter: none; } }
</style></svg>